<svg xmlns="http://www.w3.org/2000/svg" xmlns:xlink="http://www.w3.org/1999/xlink" width="989" zoomAndPan="magnify" viewBox="0 0 741.75 231" height="308" preserveAspectRatio="xMidYMid meet" version="1.0"><defs><filter x="0%" y="0%" width="100%" height="100%" id="20abb2008f"><feColorMatrix values="0 0 0 0 1 0 0 0 0 1 0 0 0 0 1 0 0 0 1 0" color-interpolation-filters="sRGB"/></filter><g/><clipPath id="787f05a44f"><rect x="0" width="463" y="0" height="121"/></clipPath><clipPath id="3e3ad5cf1a"><path d="M 0 0.0390625 L 229 0.0390625 L 229 230.960938 L 0 230.960938 Z M 0 0.0390625 " clip-rule="nonzero"/></clipPath><mask id="26cb18d35f"><g filter="url(#20abb2008f)"><rect x="-74.175" width="890.1" fill="#000000" y="-23.1" height="277.2" fill-opacity="0.55"/></g></mask><clipPath id="2afdbe0870"><path d="M 0 0.277344 L 228.402344 0.277344 L 228.402344 230.210938 L 0 230.210938 Z M 0 0.277344 " clip-rule="nonzero"/></clipPath><clipPath id="510c8a0cbb"><rect x="0" width="229" y="0" height="231"/></clipPath><clipPath id="e8c17dd87c"><path d="M 64 87 L 178 87 L 178 159 L 64 159 Z M 64 87 " clip-rule="nonzero"/></clipPath><clipPath id="294cf84e81"><path d="M 112.265625 61.308594 L 178.027344 115.90625 L 122.953125 182.242188 L 57.191406 127.648438 Z M 112.265625 61.308594 " clip-rule="nonzero"/></clipPath><clipPath id="fa00901c32"><path d="M 112.265625 61.308594 L 178.027344 115.90625 L 122.953125 182.242188 L 57.191406 127.648438 Z M 112.265625 61.308594 " clip-rule="nonzero"/></clipPath><clipPath id="a5a3e6ff46"><path d="M 112.265625 61.308594 L 178.027344 115.90625 L 122.953125 182.242188 L 57.191406 127.648438 Z M 112.265625 61.308594 " clip-rule="nonzero"/></clipPath><clipPath id="de7b9edf43"><path d="M 64 116 L 131 116 L 131 131 L 64 131 Z M 64 116 " clip-rule="nonzero"/></clipPath><clipPath id="7dac87873a"><path d="M 112.265625 61.308594 L 178.027344 115.90625 L 122.953125 182.242188 L 57.191406 127.648438 Z M 112.265625 61.308594 " clip-rule="nonzero"/></clipPath><clipPath id="50f2d370d4"><path d="M 112.265625 61.308594 L 178.027344 115.90625 L 122.953125 182.242188 L 57.191406 127.648438 Z M 112.265625 61.308594 " clip-rule="nonzero"/></clipPath><clipPath id="9b87c6ebc8"><path d="M 112.265625 61.308594 L 178.027344 115.90625 L 122.953125 182.242188 L 57.191406 127.648438 Z M 112.265625 61.308594 " clip-rule="nonzero"/></clipPath><mask id="598f54c0fe"><g filter="url(#20abb2008f)"><rect x="-74.175" width="890.1" fill="#000000" y="-23.1" height="277.2" fill-opacity="0.43"/></g></mask><clipPath id="7a1f1ef481"><path d="M 3.21875 4 L 111.355469 4 L 111.355469 71.832031 L 3.21875 71.832031 Z M 3.21875 4 " clip-rule="nonzero"/></clipPath><clipPath id="45df02fbdc"><path d="M 3.34375 41.269531 C 3.34375 40.742188 3.417969 40.519531 3.417969 40.519531 C 3.417969 40.519531 3.492188 40.21875 3.566406 40.144531 C 3.566406 39.996094 3.71875 39.769531 3.71875 39.769531 C 3.71875 39.695312 3.867188 39.542969 3.941406 39.394531 C 4.019531 39.320312 4.167969 39.09375 4.167969 39.09375 C 4.167969 39.09375 4.394531 38.871094 4.46875 38.792969 C 4.542969 38.71875 4.769531 38.496094 4.769531 38.496094 C 4.769531 38.496094 4.992188 38.417969 5.140625 38.34375 C 5.21875 38.269531 5.292969 38.269531 5.367188 38.195312 C 5.667969 37.894531 6.191406 36.769531 6.640625 36.019531 C 7.242188 35.046875 8.066406 33.695312 8.742188 32.945312 C 9.265625 32.347656 10.089844 32.046875 10.316406 31.597656 C 10.539062 31.296875 10.464844 30.996094 10.539062 30.699219 C 10.539062 30.324219 10.464844 29.796875 10.539062 29.496094 C 10.539062 29.347656 10.539062 29.199219 10.539062 29.046875 C 10.539062 28.972656 10.617188 28.671875 10.617188 28.671875 C 10.617188 28.671875 10.691406 28.449219 10.765625 28.296875 C 10.765625 28.148438 10.914062 27.921875 10.914062 27.921875 C 10.914062 27.921875 11.066406 27.699219 11.140625 27.546875 C 11.214844 27.472656 11.367188 27.25 11.367188 27.25 C 11.367188 27.25 11.589844 27.097656 11.664062 26.949219 C 11.742188 26.875 11.964844 26.722656 11.964844 26.722656 C 11.964844 26.722656 12.191406 26.574219 12.339844 26.5 C 12.414062 26.421875 12.640625 26.347656 12.640625 26.347656 C 12.714844 26.347656 12.714844 26.347656 12.714844 26.273438 C 12.789062 26.273438 13.015625 26.050781 13.015625 26.050781 C 13.015625 26.050781 13.238281 25.898438 13.390625 25.824219 C 13.464844 25.75 13.765625 25.675781 13.765625 25.675781 C 13.765625 25.597656 13.988281 25.597656 14.140625 25.523438 C 14.289062 25.523438 14.515625 25.449219 14.515625 25.449219 C 14.515625 25.449219 14.8125 25.449219 14.964844 25.449219 C 15.039062 25.449219 15.339844 25.449219 15.339844 25.449219 C 15.339844 25.449219 15.488281 25.449219 15.488281 25.449219 C 15.5625 25.449219 15.5625 25.375 15.640625 25.300781 C 15.863281 24.847656 16.6875 22.824219 17.511719 21.851562 C 18.261719 20.949219 19.460938 20.425781 20.363281 19.601562 C 21.261719 18.777344 21.9375 17.578125 22.835938 16.753906 C 23.660156 15.851562 24.636719 15.175781 25.535156 14.351562 C 26.585938 13.453125 27.636719 12.253906 28.683594 11.429688 C 29.660156 10.679688 30.558594 10.003906 31.609375 9.554688 C 32.660156 9.105469 33.933594 8.953125 34.90625 8.730469 C 35.730469 8.578125 36.707031 8.429688 37.007812 8.28125 C 37.15625 8.203125 37.15625 8.128906 37.230469 8.054688 C 37.308594 7.980469 37.53125 7.828125 37.53125 7.828125 C 37.53125 7.753906 37.757812 7.679688 37.90625 7.605469 C 37.980469 7.53125 38.207031 7.378906 38.207031 7.378906 C 38.207031 7.378906 38.507812 7.304688 38.65625 7.304688 C 38.730469 7.230469 39.03125 7.15625 39.03125 7.15625 C 39.03125 7.15625 41.28125 5.804688 42.480469 5.355469 C 43.753906 4.90625 45.253906 4.757812 46.605469 4.53125 C 47.726562 4.382812 48.777344 4.230469 49.976562 4.15625 C 51.101562 4.082031 52.375 4.082031 53.578125 4.082031 C 54.699219 4.082031 55.902344 4.082031 57.023438 4.082031 C 58.222656 4.082031 59.347656 4.082031 60.625 4.082031 C 61.972656 4.15625 63.621094 4.15625 65.046875 4.304688 C 66.398438 4.457031 67.671875 4.757812 68.871094 4.980469 C 70.070312 5.207031 71.121094 5.503906 72.246094 5.730469 C 73.371094 6.03125 74.570312 6.179688 75.695312 6.628906 C 76.816406 7.082031 77.867188 7.753906 78.917969 8.429688 C 79.890625 9.105469 80.792969 9.929688 81.839844 10.605469 C 82.816406 11.203125 83.941406 11.652344 84.992188 12.253906 C 86.191406 12.929688 87.539062 13.601562 88.664062 14.277344 C 89.640625 14.953125 90.464844 15.628906 91.4375 16.226562 C 92.339844 16.976562 93.238281 17.726562 94.289062 18.328125 C 95.335938 18.925781 96.535156 19.300781 97.585938 19.824219 C 98.636719 20.277344 99.761719 20.574219 100.660156 21.25 C 101.710938 22 102.382812 23.351562 103.433594 24.097656 C 104.335938 24.773438 105.535156 25.074219 106.359375 25.675781 C 107.183594 26.347656 107.859375 27.699219 108.457031 27.847656 C 108.90625 27.921875 109.355469 27.171875 109.730469 27.324219 C 110.183594 27.625 110.183594 29.871094 110.480469 30.773438 C 110.707031 31.296875 111.308594 31.671875 111.230469 31.972656 C 111.230469 32.195312 110.933594 32.195312 110.855469 32.421875 C 110.855469 32.648438 111.15625 32.945312 111.082031 33.246094 C 110.78125 33.996094 108.082031 35.496094 107.558594 35.945312 C 107.40625 36.09375 107.257812 36.171875 107.257812 36.246094 C 107.257812 36.320312 107.257812 36.394531 107.257812 36.394531 C 107.257812 36.394531 107.257812 36.695312 107.183594 36.84375 C 107.183594 36.996094 107.109375 37.21875 107.109375 37.21875 C 107.109375 37.21875 107.03125 37.445312 106.957031 37.59375 C 106.957031 37.746094 106.882812 37.894531 106.808594 37.96875 C 106.808594 38.042969 106.808594 38.042969 106.734375 38.042969 C 106.507812 38.417969 104.785156 40.21875 103.734375 41.117188 C 102.757812 41.945312 101.636719 42.320312 100.734375 43.144531 C 99.6875 44.191406 98.9375 45.84375 97.960938 46.816406 C 97.0625 47.640625 95.5625 48.542969 95.1875 48.839844 C 95.113281 48.839844 95.113281 48.839844 95.039062 48.917969 C 95.039062 48.992188 94.960938 49.066406 94.960938 49.140625 C 94.886719 49.292969 94.738281 49.515625 94.738281 49.515625 C 94.738281 49.515625 94.585938 49.742188 94.511719 49.816406 C 94.4375 49.964844 94.210938 50.117188 94.210938 50.117188 C 94.210938 50.191406 92.414062 51.765625 91.511719 52.515625 C 90.613281 53.339844 89.714844 54.238281 88.738281 55.0625 C 87.691406 55.890625 86.339844 56.488281 85.367188 57.386719 C 84.464844 58.214844 83.941406 59.1875 83.042969 60.011719 C 81.992188 60.914062 80.640625 61.738281 79.367188 62.5625 C 78.167969 63.3125 76.816406 63.984375 75.617188 64.585938 C 74.492188 65.1875 73.519531 65.859375 72.46875 66.234375 C 71.421875 66.683594 70.296875 66.683594 69.246094 67.136719 C 67.972656 67.660156 66.773438 68.632812 65.570312 69.234375 C 64.523438 69.757812 63.546875 70.132812 62.421875 70.507812 C 61.296875 70.882812 60.097656 71.109375 58.898438 71.332031 C 57.773438 71.484375 56.648438 71.410156 55.527344 71.484375 C 54.402344 71.558594 53.351562 71.785156 52.078125 71.707031 C 50.652344 71.632812 48.777344 71.109375 47.277344 70.957031 C 46.003906 70.808594 44.878906 70.882812 43.753906 70.660156 C 42.628906 70.433594 41.503906 69.835938 40.457031 69.535156 C 39.707031 69.234375 38.882812 68.558594 38.28125 68.710938 C 37.679688 68.859375 37.457031 69.910156 36.78125 70.132812 C 35.882812 70.433594 33.78125 70.132812 32.882812 69.460938 C 32.058594 68.859375 31.757812 67.210938 31.382812 66.460938 C 31.082031 66.011719 30.933594 65.5625 30.707031 65.410156 C 30.632812 65.335938 30.632812 65.335938 30.558594 65.261719 C 30.410156 65.261719 30.335938 65.261719 30.109375 65.1875 C 29.585938 65.035156 27.933594 64.4375 26.886719 63.835938 C 25.761719 63.160156 24.785156 62.035156 23.660156 61.210938 C 22.6875 60.460938 21.5625 59.863281 20.664062 59.113281 C 19.6875 58.363281 18.9375 57.464844 18.039062 56.714844 C 17.136719 55.964844 16.238281 55.363281 15.265625 54.765625 C 14.289062 54.164062 13.316406 53.640625 12.414062 52.964844 C 11.441406 52.289062 10.390625 51.464844 9.566406 50.714844 C 8.816406 50.117188 8.214844 49.367188 7.617188 48.839844 C 7.242188 48.464844 6.792969 48.242188 6.492188 47.792969 C 6.191406 47.339844 6.191406 46.742188 5.890625 46.367188 C 5.59375 45.992188 5.140625 46.066406 4.769531 45.691406 C 4.242188 45.09375 3.566406 43.441406 3.34375 42.617188 C 3.269531 42.09375 3.34375 41.34375 3.34375 41.269531 M 18.261719 49.214844 C 19.085938 49.816406 19.386719 50.117188 19.539062 50.117188 C 19.613281 50.117188 19.613281 50.039062 19.613281 49.964844 C 19.613281 49.816406 18.339844 49.140625 18.261719 49.214844 M 57.324219 66.910156 C 59.800781 64.886719 59.273438 65.035156 58.972656 65.1875 C 58.523438 65.484375 57.324219 66.910156 57.324219 66.910156 " clip-rule="nonzero"/></clipPath><mask id="660c031c54"><g filter="url(#20abb2008f)"><rect x="-226.185" width="1068.12" fill="#000000" y="-135.82" height="332.64" fill-opacity="0.5"/></g></mask><clipPath id="20cdc23ac2"><path d="M 0.21875 0.0507812 L 108.355469 0.0507812 L 108.355469 67.832031 L 0.21875 67.832031 Z M 0.21875 0.0507812 " clip-rule="nonzero"/></clipPath><clipPath id="5c4c447208"><path d="M 0.34375 37.269531 C 0.34375 36.742188 0.417969 36.519531 0.417969 36.519531 C 0.417969 36.519531 0.492188 36.21875 0.566406 36.144531 C 0.566406 35.996094 0.71875 35.769531 0.71875 35.769531 C 0.71875 35.695312 0.867188 35.542969 0.941406 35.394531 C 1.019531 35.320312 1.167969 35.09375 1.167969 35.09375 C 1.167969 35.09375 1.394531 34.871094 1.46875 34.792969 C 1.542969 34.71875 1.769531 34.496094 1.769531 34.496094 C 1.769531 34.496094 1.992188 34.417969 2.140625 34.34375 C 2.21875 34.269531 2.292969 34.269531 2.367188 34.195312 C 2.667969 33.894531 3.191406 32.769531 3.640625 32.019531 C 4.242188 31.046875 5.066406 29.695312 5.742188 28.945312 C 6.265625 28.347656 7.089844 28.046875 7.316406 27.597656 C 7.539062 27.296875 7.464844 26.996094 7.539062 26.699219 C 7.539062 26.324219 7.464844 25.796875 7.539062 25.496094 C 7.539062 25.347656 7.539062 25.199219 7.539062 25.046875 C 7.539062 24.972656 7.617188 24.671875 7.617188 24.671875 C 7.617188 24.671875 7.691406 24.449219 7.765625 24.296875 C 7.765625 24.148438 7.914062 23.921875 7.914062 23.921875 C 7.914062 23.921875 8.066406 23.699219 8.140625 23.546875 C 8.214844 23.472656 8.367188 23.25 8.367188 23.25 C 8.367188 23.25 8.589844 23.097656 8.664062 22.949219 C 8.742188 22.875 8.964844 22.722656 8.964844 22.722656 C 8.964844 22.722656 9.191406 22.574219 9.339844 22.5 C 9.414062 22.421875 9.640625 22.347656 9.640625 22.347656 C 9.714844 22.347656 9.714844 22.347656 9.714844 22.273438 C 9.789062 22.273438 10.015625 22.050781 10.015625 22.050781 C 10.015625 22.050781 10.238281 21.898438 10.390625 21.824219 C 10.464844 21.75 10.765625 21.675781 10.765625 21.675781 C 10.765625 21.597656 10.988281 21.597656 11.140625 21.523438 C 11.289062 21.523438 11.515625 21.449219 11.515625 21.449219 C 11.515625 21.449219 11.8125 21.449219 11.964844 21.449219 C 12.039062 21.449219 12.339844 21.449219 12.339844 21.449219 C 12.339844 21.449219 12.488281 21.449219 12.488281 21.449219 C 12.5625 21.449219 12.5625 21.375 12.640625 21.300781 C 12.863281 20.847656 13.6875 18.824219 14.511719 17.851562 C 15.261719 16.949219 16.460938 16.425781 17.363281 15.601562 C 18.261719 14.777344 18.9375 13.578125 19.835938 12.753906 C 20.660156 11.851562 21.636719 11.175781 22.535156 10.351562 C 23.585938 9.453125 24.636719 8.253906 25.683594 7.429688 C 26.660156 6.679688 27.558594 6.003906 28.609375 5.554688 C 29.660156 5.105469 30.933594 4.953125 31.90625 4.730469 C 32.730469 4.578125 33.707031 4.429688 34.007812 4.28125 C 34.15625 4.203125 34.15625 4.128906 34.230469 4.054688 C 34.308594 3.980469 34.53125 3.828125 34.53125 3.828125 C 34.53125 3.753906 34.757812 3.679688 34.90625 3.605469 C 34.980469 3.53125 35.207031 3.378906 35.207031 3.378906 C 35.207031 3.378906 35.507812 3.304688 35.65625 3.304688 C 35.730469 3.230469 36.03125 3.15625 36.03125 3.15625 C 36.03125 3.15625 38.28125 1.804688 39.480469 1.355469 C 40.753906 0.90625 42.253906 0.757812 43.605469 0.53125 C 44.726562 0.382812 45.777344 0.230469 46.976562 0.15625 C 48.101562 0.0820312 49.375 0.0820312 50.578125 0.0820312 C 51.699219 0.0820312 52.902344 0.0820312 54.023438 0.0820312 C 55.222656 0.0820312 56.347656 0.0820312 57.625 0.0820312 C 58.972656 0.15625 60.621094 0.15625 62.046875 0.304688 C 63.398438 0.457031 64.671875 0.757812 65.871094 0.980469 C 67.070312 1.207031 68.121094 1.503906 69.246094 1.730469 C 70.371094 2.03125 71.570312 2.179688 72.695312 2.628906 C 73.816406 3.082031 74.867188 3.753906 75.917969 4.429688 C 76.890625 5.105469 77.792969 5.929688 78.839844 6.605469 C 79.816406 7.203125 80.941406 7.652344 81.992188 8.253906 C 83.191406 8.929688 84.539062 9.601562 85.664062 10.277344 C 86.640625 10.953125 87.464844 11.628906 88.4375 12.226562 C 89.339844 12.976562 90.238281 13.726562 91.289062 14.328125 C 92.335938 14.925781 93.535156 15.300781 94.585938 15.824219 C 95.636719 16.277344 96.761719 16.574219 97.660156 17.25 C 98.710938 18 99.382812 19.351562 100.433594 20.097656 C 101.335938 20.773438 102.535156 21.074219 103.359375 21.675781 C 104.183594 22.347656 104.859375 23.699219 105.457031 23.847656 C 105.90625 23.921875 106.355469 23.171875 106.730469 23.324219 C 107.183594 23.625 107.183594 25.871094 107.480469 26.773438 C 107.707031 27.296875 108.308594 27.671875 108.230469 27.972656 C 108.230469 28.195312 107.933594 28.195312 107.855469 28.421875 C 107.855469 28.648438 108.15625 28.945312 108.082031 29.246094 C 107.78125 29.996094 105.082031 31.496094 104.558594 31.945312 C 104.40625 32.09375 104.257812 32.171875 104.257812 32.246094 C 104.257812 32.320312 104.257812 32.394531 104.257812 32.394531 C 104.257812 32.394531 104.257812 32.695312 104.183594 32.84375 C 104.183594 32.996094 104.109375 33.21875 104.109375 33.21875 C 104.109375 33.21875 104.03125 33.445312 103.957031 33.59375 C 103.957031 33.746094 103.882812 33.894531 103.808594 33.96875 C 103.808594 34.042969 103.808594 34.042969 103.734375 34.042969 C 103.507812 34.417969 101.785156 36.21875 100.734375 37.117188 C 99.757812 37.945312 98.636719 38.320312 97.734375 39.144531 C 96.6875 40.191406 95.9375 41.84375 94.960938 42.816406 C 94.0625 43.640625 92.5625 44.542969 92.1875 44.839844 C 92.113281 44.839844 92.113281 44.839844 92.039062 44.917969 C 92.039062 44.992188 91.960938 45.066406 91.960938 45.140625 C 91.886719 45.292969 91.738281 45.515625 91.738281 45.515625 C 91.738281 45.515625 91.585938 45.742188 91.511719 45.816406 C 91.4375 45.964844 91.210938 46.117188 91.210938 46.117188 C 91.210938 46.191406 89.414062 47.765625 88.511719 48.515625 C 87.613281 49.339844 86.714844 50.238281 85.738281 51.0625 C 84.691406 51.890625 83.339844 52.488281 82.367188 53.386719 C 81.464844 54.214844 80.941406 55.1875 80.042969 56.011719 C 78.992188 56.914062 77.640625 57.738281 76.367188 58.5625 C 75.167969 59.3125 73.816406 59.984375 72.617188 60.585938 C 71.492188 61.1875 70.519531 61.859375 69.46875 62.234375 C 68.421875 62.683594 67.296875 62.683594 66.246094 63.136719 C 64.972656 63.660156 63.773438 64.632812 62.570312 65.234375 C 61.523438 65.757812 60.546875 66.132812 59.421875 66.507812 C 58.296875 66.882812 57.097656 67.109375 55.898438 67.332031 C 54.773438 67.484375 53.648438 67.410156 52.527344 67.484375 C 51.402344 67.558594 50.351562 67.785156 49.078125 67.707031 C 47.652344 67.632812 45.777344 67.109375 44.277344 66.957031 C 43.003906 66.808594 41.878906 66.882812 40.753906 66.660156 C 39.628906 66.433594 38.503906 65.835938 37.457031 65.535156 C 36.707031 65.234375 35.882812 64.558594 35.28125 64.710938 C 34.679688 64.859375 34.457031 65.910156 33.78125 66.132812 C 32.882812 66.433594 30.78125 66.132812 29.882812 65.460938 C 29.058594 64.859375 28.757812 63.210938 28.382812 62.460938 C 28.082031 62.011719 27.933594 61.5625 27.707031 61.410156 C 27.632812 61.335938 27.632812 61.335938 27.558594 61.261719 C 27.410156 61.261719 27.335938 61.261719 27.109375 61.1875 C 26.585938 61.035156 24.933594 60.4375 23.886719 59.835938 C 22.761719 59.160156 21.785156 58.035156 20.660156 57.210938 C 19.6875 56.460938 18.5625 55.863281 17.664062 55.113281 C 16.6875 54.363281 15.9375 53.464844 15.039062 52.714844 C 14.136719 51.964844 13.238281 51.363281 12.265625 50.765625 C 11.289062 50.164062 10.316406 49.640625 9.414062 48.964844 C 8.441406 48.289062 7.390625 47.464844 6.566406 46.714844 C 5.816406 46.117188 5.214844 45.367188 4.617188 44.839844 C 4.242188 44.464844 3.792969 44.242188 3.492188 43.792969 C 3.191406 43.339844 3.191406 42.742188 2.890625 42.367188 C 2.59375 41.992188 2.140625 42.066406 1.769531 41.691406 C 1.242188 41.09375 0.566406 39.441406 0.34375 38.617188 C 0.269531 38.09375 0.34375 37.34375 0.34375 37.269531 M 15.261719 45.214844 C 16.085938 45.816406 16.386719 46.117188 16.539062 46.117188 C 16.613281 46.117188 16.613281 46.039062 16.613281 45.964844 C 16.613281 45.816406 15.339844 45.140625 15.261719 45.214844 M 54.324219 62.910156 C 56.800781 60.886719 56.273438 61.035156 55.972656 61.1875 C 55.523438 61.484375 54.324219 62.910156 54.324219 62.910156 " clip-rule="nonzero"/></clipPath><clipPath id="60d9cf1482"><rect x="0" width="109" y="0" height="68"/></clipPath><clipPath id="9ea78f3b9b"><rect x="0" width="115" y="0" height="75"/></clipPath></defs><g transform="matrix(1, 0, 0, 1, 260, 62)"><g clip-path="url(#787f05a44f)"><g fill="#000000" fill-opacity="1"><g transform="translate(0.642142, 100.625072)"><g><path d="M 9.96875 0 L 9.96875 -71.515625 L 16.734375 -71.515625 L 16.734375 0 Z M 9.96875 0 "/></g></g></g><g fill="#000000" fill-opacity="1"><g transform="translate(27.435461, 100.625072)"><g><path d="M 9.96875 0 L 31.875 -71.421875 L 31.875 -71.515625 L 38.953125 -71.515625 L 60.96875 0 L 53.890625 0 L 48.3125 -18.328125 L 18.421875 -18.328125 L 12.75 0 Z M 19.21875 -21.015625 L 47.421875 -21.015625 L 33.375 -66.84375 Z M 19.21875 -21.015625 "/></g></g></g><g fill="#000000" fill-opacity="1"><g transform="translate(98.452698, 100.625072)"><g><path d="M 9.96875 0 L 9.96875 -71.515625 L 17.734375 -71.515625 L 52 -13.34375 L 52 -71.515625 L 54.6875 -71.515625 L 54.6875 0 L 52 0 L 52 -0.09375 L 12.65625 -66.9375 L 12.65625 0 Z M 9.96875 0 "/></g></g></g><g fill="#000000" fill-opacity="1"><g transform="translate(163.095315, 100.625072)"><g/></g></g><g fill="#000000" fill-opacity="1"><g transform="translate(215.885126, 100.625072)"><g><path d="M 9.96875 0 L 9.96875 -71.515625 L 50.40625 -71.515625 L 50.40625 -68.828125 L 16.734375 -68.828125 L 16.734375 -37.546875 L 43.734375 -37.546875 L 43.734375 -34.859375 L 16.734375 -34.859375 L 16.734375 -2.6875 L 52.5 -2.6875 L 52.5 0 Z M 9.96875 0 "/></g></g></g><g fill="#000000" fill-opacity="1"><g transform="translate(273.355973, 100.625072)"><g><path d="M 28.1875 1.09375 C 24.863281 1.09375 21.394531 0.265625 17.78125 -1.390625 C 14.164062 -3.054688 10.894531 -5.945312 7.96875 -10.0625 L 10.15625 -11.5625 C 12.21875 -8.632812 14.609375 -6.320312 17.328125 -4.625 C 20.054688 -2.9375 22.847656 -1.890625 25.703125 -1.484375 C 28.554688 -1.085938 31.257812 -1.269531 33.8125 -2.03125 C 36.375 -2.800781 38.566406 -4.179688 40.390625 -6.171875 C 42.210938 -8.171875 43.390625 -10.726562 43.921875 -13.84375 C 44.585938 -17.5625 43.554688 -21.113281 40.828125 -24.5 C 38.109375 -27.882812 34.394531 -30.609375 29.6875 -32.671875 C 29.414062 -32.804688 29.144531 -32.957031 28.875 -33.125 C 28.613281 -33.289062 28.316406 -33.40625 27.984375 -33.46875 C 26.460938 -34.195312 24.640625 -35.125 22.515625 -36.25 C 20.390625 -37.382812 18.3125 -38.796875 16.28125 -40.484375 C 14.257812 -42.179688 12.582031 -44.207031 11.25 -46.5625 C 9.925781 -48.925781 9.296875 -51.632812 9.359375 -54.6875 C 9.429688 -57.601562 10.265625 -60.207031 11.859375 -62.5 C 13.453125 -64.789062 15.523438 -66.703125 18.078125 -68.234375 C 20.640625 -69.765625 23.347656 -70.796875 26.203125 -71.328125 C 29.785156 -72.054688 32.953125 -72.070312 35.703125 -71.375 C 38.460938 -70.675781 40.769531 -69.5625 42.625 -68.03125 C 44.488281 -66.507812 45.820312 -64.785156 46.625 -62.859375 L 44.125 -61.765625 C 42.925781 -64.546875 41.234375 -66.566406 39.046875 -67.828125 C 36.859375 -69.097656 34.46875 -69.710938 31.875 -69.671875 C 29.28125 -69.640625 26.804688 -69.007812 24.453125 -67.78125 C 22.097656 -66.550781 20.140625 -64.804688 18.578125 -62.546875 C 17.015625 -60.296875 16.164062 -57.609375 16.03125 -54.484375 C 15.96875 -51.234375 17.296875 -48.476562 20.015625 -46.21875 C 22.742188 -43.957031 26.363281 -41.765625 30.875 -39.640625 C 31.40625 -39.304688 31.9375 -39.039062 32.46875 -38.84375 C 34.59375 -37.851562 36.800781 -36.757812 39.09375 -35.5625 C 41.382812 -34.363281 43.476562 -32.898438 45.375 -31.171875 C 47.269531 -29.453125 48.726562 -27.410156 49.75 -25.046875 C 50.78125 -22.691406 51.066406 -19.890625 50.609375 -16.640625 C 50.078125 -12.585938 48.296875 -9.03125 45.265625 -5.96875 C 42.242188 -2.914062 38.476562 -0.789062 33.96875 0.40625 C 33.039062 0.664062 32.160156 0.828125 31.328125 0.890625 C 30.492188 0.960938 29.445312 1.03125 28.1875 1.09375 Z M 28.1875 1.09375 "/></g></g></g><g fill="#000000" fill-opacity="1"><g transform="translate(328.137599, 100.625072)"><g><path d="M 37.953125 1.09375 C 33.703125 1.09375 29.75 0.148438 26.09375 -1.734375 C 22.445312 -3.628906 19.257812 -6.253906 16.53125 -9.609375 C 13.8125 -12.960938 11.703125 -16.832031 10.203125 -21.21875 C 8.710938 -25.601562 7.96875 -30.316406 7.96875 -35.359375 C 7.96875 -40.410156 8.710938 -45.125 10.203125 -49.5 C 11.703125 -53.882812 13.8125 -57.753906 16.53125 -61.109375 C 19.257812 -64.460938 22.445312 -67.082031 26.09375 -68.96875 C 29.75 -70.863281 33.703125 -71.8125 37.953125 -71.8125 C 41.609375 -71.75 45.191406 -70.835938 48.703125 -69.078125 C 52.222656 -67.316406 55.3125 -64.773438 57.96875 -61.453125 L 55.875 -59.765625 C 53.425781 -62.691406 50.65625 -64.984375 47.5625 -66.640625 C 44.476562 -68.296875 41.273438 -69.125 37.953125 -69.125 C 34.566406 -69.125 31.460938 -68.144531 28.640625 -66.1875 C 25.816406 -64.226562 23.359375 -61.617188 21.265625 -58.359375 C 19.171875 -55.109375 17.539062 -51.488281 16.375 -47.5 C 15.21875 -43.519531 14.640625 -39.472656 14.640625 -35.359375 C 14.640625 -31.242188 15.21875 -27.191406 16.375 -23.203125 C 17.539062 -19.222656 19.171875 -15.601562 21.265625 -12.34375 C 23.359375 -9.09375 25.816406 -6.488281 28.640625 -4.53125 C 31.460938 -2.570312 34.566406 -1.59375 37.953125 -1.59375 C 42.671875 -1.59375 47.003906 -3.117188 50.953125 -6.171875 C 54.898438 -9.234375 57.972656 -13.085938 60.171875 -17.734375 L 62.65625 -16.640625 C 60 -11.128906 56.492188 -6.8125 52.140625 -3.6875 C 47.796875 -0.5625 43.066406 1.03125 37.953125 1.09375 Z M 37.953125 1.09375 "/></g></g></g><g fill="#000000" fill-opacity="1"><g transform="translate(397.760315, 100.625072)"><g><path d="M 9.96875 0 L 9.96875 -71.515625 L 16.734375 -71.515625 L 16.734375 -37.453125 L 46.421875 -37.453125 L 46.421875 -71.515625 L 53.1875 -71.515625 L 53.1875 0 L 46.421875 0 L 46.421875 -34.765625 L 16.734375 -34.765625 L 16.734375 0 Z M 9.96875 0 "/></g></g></g></g></g><g clip-path="url(#3e3ad5cf1a)"><g mask="url(#26cb18d35f)"><g transform="matrix(1, 0, 0, 1, 0, -0.000000000000014988)"><g clip-path="url(#510c8a0cbb)"><path fill="#97b450" d="M 207.164062 174.535156 C 201.128906 184.816406 193.488281 194.15625 184.617188 201.890625 C 180.183594 205.757812 175.5625 209.25 170.75 212.269531 C 165.941406 215.289062 161.035156 218.023438 156.035156 220.191406 C 163.960938 216.609375 171.507812 212.082031 178.488281 206.796875 C 173.296875 210.757812 168.109375 213.96875 162.734375 216.703125 C 161.410156 217.363281 159.996094 218.117188 158.582031 218.683594 C 157.167969 219.25 155.75 219.910156 154.335938 220.476562 C 152.921875 221.042969 151.414062 221.515625 149.902344 222.082031 C 148.394531 222.644531 146.789062 223.023438 145.28125 223.589844 C 146.222656 223.117188 147.355469 222.644531 148.675781 222.175781 C 149.996094 221.703125 151.316406 221.042969 152.734375 220.476562 C 154.054688 219.910156 155.28125 219.34375 156.316406 218.777344 C 157.355469 218.210938 158.109375 217.742188 158.488281 217.363281 C 172.734375 210.570312 185.5625 200.855469 196.035156 189.0625 C 206.503906 177.269531 214.523438 163.308594 219.335938 148.496094 C 218.390625 154.628906 216.410156 159.441406 214.050781 163.402344 C 211.789062 167.457031 209.335938 170.761719 207.164062 174.535156 Z M 207.164062 174.535156 " fill-opacity="1" fill-rule="nonzero"/><path fill="#97b450" d="M 110.5625 228.304688 C 112.167969 228.210938 113.675781 228.210938 115.28125 228.117188 C 116.789062 228.117188 118.394531 227.929688 119.902344 227.835938 C 116.601562 228.210938 113.394531 228.304688 110.5625 228.304688 Z M 110.5625 228.304688 " fill-opacity="1" fill-rule="nonzero"/><path fill="#97b450" d="M 135.847656 13.875 C 134.148438 13.59375 132.449219 13.121094 130.847656 12.933594 C 129.148438 12.648438 127.542969 12.367188 125.847656 12.179688 C 127.542969 12.273438 129.148438 12.648438 130.847656 12.839844 C 132.542969 13.027344 134.148438 13.5 135.847656 13.875 Z M 135.847656 13.875 " fill-opacity="1" fill-rule="nonzero"/><path fill="#97b450" d="M 217.730469 134.910156 C 217.921875 133.121094 218.015625 131.234375 218.203125 129.347656 C 219.996094 115.382812 219.242188 100.855469 215.375 86.707031 C 217.449219 94.347656 218.957031 102.460938 219.523438 110.667969 C 220.089844 118.875 219.429688 127.175781 217.730469 134.910156 Z M 217.730469 134.910156 " fill-opacity="1" fill-rule="nonzero"/><path fill="#97b450" d="M 212.636719 149.25 C 210.46875 156.042969 207.542969 162.554688 203.957031 168.683594 C 200.375 174.722656 196.128906 180.289062 191.503906 185.195312 C 200.65625 175.289062 208.109375 162.929688 212.636719 149.25 Z M 212.636719 149.25 " fill-opacity="1" fill-rule="nonzero"/><path fill="#97b450" d="M 44.339844 45.574219 C 44.433594 45.667969 44.339844 45.855469 44.148438 46.234375 C 43.867188 46.515625 43.679688 46.800781 43.585938 47.082031 C 39.714844 50.480469 36.132812 54.253906 32.828125 58.214844 C 33.585938 57.175781 34.054688 56.046875 34.90625 55.007812 C 35.847656 53.875 36.699219 53.121094 37.453125 52.367188 C 38.207031 51.613281 38.867188 51.046875 39.527344 50.480469 C 40.1875 49.914062 40.847656 49.253906 41.601562 48.402344 C 42.359375 47.648438 43.300781 46.707031 44.339844 45.574219 Z M 44.339844 45.574219 " fill-opacity="1" fill-rule="nonzero"/><path fill="#97b450" d="M 139.527344 14.820312 C 139.621094 14.820312 139.808594 14.820312 139.902344 14.820312 C 141.035156 15.101562 142.167969 15.386719 143.300781 15.761719 C 143.394531 15.859375 143.582031 15.859375 143.675781 15.953125 C 142.261719 15.480469 140.941406 15.101562 139.527344 14.820312 Z M 139.527344 14.820312 " fill-opacity="1" fill-rule="nonzero"/><path fill="#97b450" d="M 49.433594 41.234375 C 49.714844 41.421875 49.90625 41.519531 50.472656 41.421875 C 49.246094 42.273438 48.207031 43.214844 47.074219 44.160156 C 45.941406 45.007812 44.808594 46.046875 43.773438 46.988281 C 43.960938 46.707031 44.148438 46.421875 44.339844 46.234375 C 44.621094 45.855469 45.09375 45.480469 45.472656 45.007812 C 45.941406 44.628906 46.414062 44.160156 46.886719 43.78125 C 47.734375 42.933594 48.679688 42.082031 49.433594 41.234375 Z M 49.433594 41.234375 " fill-opacity="1" fill-rule="nonzero"/><path fill="#97b450" d="M 111.035156 21.613281 C 112.828125 21.613281 114.527344 21.140625 115.375 21.046875 C 120.09375 21.707031 124.808594 22.554688 130.1875 23.972656 C 131.035156 24.066406 132.828125 24.441406 134.621094 24.535156 C 135.5625 25.007812 136.601562 25.480469 137.640625 25.953125 C 125.941406 22.367188 113.207031 20.953125 100.375 22.179688 C 102.074219 21.988281 103.867188 21.894531 105.660156 21.707031 C 107.355469 21.613281 109.148438 21.519531 111.035156 21.613281 Z M 111.035156 21.613281 " fill-opacity="1" fill-rule="nonzero"/><g clip-path="url(#2afdbe0870)"><path fill="#97b450" d="M 107.921875 219.25 C 103.488281 219.25 98.867188 218.777344 94.242188 218.023438 C 89.621094 217.175781 85 216.042969 80.46875 214.628906 C 71.414062 211.703125 62.921875 207.644531 55.28125 203.589844 C 59.433594 206.515625 64.242188 209.4375 69.339844 211.796875 C 74.339844 214.15625 79.621094 216.136719 84.433594 217.742188 C 94.054688 220.757812 101.980469 221.890625 103.488281 223.210938 C 104.242188 223.871094 102.828125 224.0625 99.902344 223.96875 C 98.488281 223.871094 96.695312 223.683594 94.714844 223.402344 C 93.675781 223.304688 92.640625 223.023438 91.507812 222.835938 C 90.375 222.550781 89.242188 222.457031 88.015625 222.082031 C 83.300781 220.949219 78.015625 219.25 73.113281 217.269531 C 68.207031 215.289062 63.679688 212.929688 60 211.042969 C 61.792969 212.269531 61.792969 212.269531 63.679688 213.496094 C 62.734375 212.835938 61.886719 212.269531 60.941406 211.703125 C 60.46875 211.421875 60 211.136719 59.527344 210.949219 C 59.054688 210.664062 58.582031 210.476562 58.207031 210.289062 C 59.054688 210.949219 60.1875 211.703125 61.507812 212.457031 C 62.734375 213.210938 64.054688 214.0625 65.375 214.816406 C 66.695312 215.570312 67.921875 216.324219 68.960938 216.890625 C 70 217.457031 70.941406 218.023438 71.414062 218.402344 C 71.414062 218.402344 70.46875 218.117188 69.433594 217.929688 C 68.960938 217.835938 68.488281 217.644531 68.113281 217.644531 C 67.734375 217.550781 67.546875 217.457031 67.546875 217.457031 C 72.453125 220.570312 80.09375 223.777344 88.207031 226.042969 C 96.320312 228.304688 104.621094 229.34375 110.5625 230.289062 C 96.128906 228.777344 80.753906 225.003906 66.128906 217.835938 C 58.773438 214.25 51.695312 209.910156 44.90625 204.722656 C 38.207031 199.535156 31.980469 193.496094 26.320312 186.890625 C 20.753906 180.195312 15.847656 172.835938 11.886719 164.910156 C 7.925781 157.082031 4.90625 148.589844 2.925781 140.007812 C 0.847656 131.328125 0 122.460938 0.09375 113.6875 C 0.1875 104.914062 1.320312 96.234375 3.585938 87.933594 C 5.941406 78.6875 9.246094 69.722656 13.585938 61.515625 C 15.660156 57.367188 18.113281 53.5 20.660156 49.628906 C 23.300781 45.855469 26.039062 42.179688 28.960938 38.78125 C 31.886719 35.292969 35.09375 32.082031 38.300781 29.066406 C 41.601562 26.046875 45 23.121094 48.582031 20.574219 C 55.753906 15.292969 63.394531 10.859375 71.414062 7.367188 C 72.167969 7.085938 73.113281 6.707031 74.148438 6.328125 C 75.1875 5.953125 76.320312 5.574219 77.546875 5.199219 C 78.773438 4.820312 80.09375 4.441406 81.507812 4.066406 C 82.921875 3.78125 84.433594 3.40625 85.941406 3.027344 C 91.980469 1.707031 98.773438 0.953125 104.433594 0.765625 C 114.433594 0.101562 124.527344 0.667969 134.429688 2.460938 C 136.882812 3.027344 139.335938 3.40625 141.789062 4.066406 L 145.46875 5.007812 L 150.847656 6.707031 L 152.636719 7.367188 L 156.222656 8.59375 L 159.714844 10.007812 L 161.507812 10.667969 L 163.203125 11.425781 C 202.070312 29.726562 228.015625 70.480469 228.390625 116.234375 C 228.390625 118.496094 228.203125 120.949219 227.921875 123.121094 C 227.542969 125.195312 227.070312 126.894531 226.695312 127.554688 C 226.316406 128.214844 225.9375 127.929688 225.84375 126.136719 C 225.75 125.195312 225.75 123.96875 225.65625 122.175781 C 225.65625 121.328125 225.5625 120.289062 225.5625 119.15625 C 225.5625 118.027344 225.5625 116.800781 225.46875 115.476562 C 224.996094 106.421875 223.484375 97.367188 221.128906 88.59375 C 218.582031 79.722656 215.183594 71.234375 210.84375 63.214844 C 211.222656 63.59375 211.789062 64.347656 212.355469 65.386719 C 212.636719 65.855469 213.015625 66.421875 213.296875 67.082031 C 213.582031 67.648438 213.957031 68.308594 214.242188 68.96875 C 214.902344 70.289062 215.5625 71.707031 216.128906 73.027344 C 216.695312 74.347656 217.261719 75.480469 217.730469 76.421875 C 215.5625 70.007812 212.921875 64.347656 209.902344 58.96875 C 206.882812 53.59375 203.390625 48.5 199.148438 43.40625 C 204.808594 50.195312 209.710938 57.648438 213.769531 65.574219 C 208.769531 55.667969 202.070312 45.855469 193.769531 37.273438 C 185.5625 28.59375 175.65625 21.234375 164.902344 15.574219 C 160.941406 13.5 157.449219 11.140625 153.300781 9.160156 C 152.261719 8.6875 151.128906 8.121094 149.996094 7.648438 C 148.863281 7.179688 147.636719 6.800781 146.414062 6.328125 C 145.1875 5.859375 143.769531 5.574219 142.355469 5.292969 C 140.941406 5.007812 139.429688 4.632812 137.828125 4.539062 C 145.46875 6.613281 153.015625 9.539062 160.089844 13.214844 C 167.167969 16.894531 173.957031 21.328125 180.183594 26.328125 C 192.636719 36.421875 203.109375 49.066406 210.65625 63.214844 L 210.5625 63.121094 C 213.957031 69.441406 216.695312 75.761719 218.675781 82.175781 C 220.75 88.59375 222.164062 95.195312 223.109375 102.082031 C 222.921875 101.042969 222.824219 99.914062 222.636719 98.875 C 222.449219 97.835938 222.261719 96.800781 221.976562 95.761719 C 221.597656 93.6875 221.128906 91.707031 220.75 89.820312 L 221.503906 93.496094 C 221.695312 94.722656 221.882812 95.949219 222.070312 97.175781 C 222.542969 99.628906 222.636719 102.175781 222.921875 104.628906 C 223.296875 109.628906 223.484375 114.535156 223.203125 119.535156 C 223.109375 124.441406 222.449219 129.441406 221.695312 134.25 C 221.222656 136.703125 220.84375 139.15625 220.183594 141.515625 C 219.902344 142.742188 219.617188 143.875 219.335938 145.101562 L 218.296875 148.683594 C 219.996094 141.988281 221.128906 135.007812 221.695312 127.929688 C 222.164062 120.855469 222.070312 113.6875 221.316406 106.609375 C 219.808594 92.367188 215.65625 78.214844 208.863281 65.289062 C 202.164062 52.460938 192.828125 40.855469 181.789062 31.613281 C 170.75 22.367188 158.015625 15.386719 144.808594 11.234375 C 151.976562 14.253906 160.28125 17.839844 167.828125 22.367188 C 175.375 26.894531 182.070312 32.273438 186.410156 37.554688 C 181.882812 33.214844 176.976562 29.160156 171.789062 25.574219 C 166.601562 21.988281 161.035156 18.875 155.28125 16.234375 C 149.523438 13.59375 143.488281 11.425781 137.261719 9.726562 C 131.035156 8.027344 124.714844 6.988281 118.207031 6.425781 C 119.148438 6.425781 120.09375 6.519531 121.035156 6.519531 C 121.980469 6.519531 122.921875 6.613281 123.867188 6.707031 C 115.941406 5.292969 107.449219 5.101562 99.148438 5.953125 C 90.847656 6.800781 82.640625 8.78125 74.902344 11.234375 C 73.488281 11.707031 72.167969 12.085938 70.753906 12.648438 C 72.074219 12.085938 73.488281 11.707031 74.902344 11.234375 C 89.054688 6.707031 103.867188 5.199219 118.109375 6.425781 C 111.507812 6.234375 104.527344 6.234375 96.222656 7.179688 C 98.488281 7.085938 101.222656 7.085938 104.242188 6.988281 C 107.261719 6.988281 110.46875 6.988281 113.675781 7.273438 C 122.167969 7.554688 130.5625 8.875 138.675781 11.140625 C 126.507812 7.839844 113.582031 7.085938 102.074219 8.6875 C 110.753906 8.3125 119.621094 8.6875 128.300781 10.292969 C 136.976562 11.894531 145.46875 14.441406 153.394531 18.121094 C 148.960938 16.234375 144.527344 14.632812 139.902344 13.40625 C 135.28125 12.085938 130.65625 11.234375 125.941406 10.574219 C 110.09375 8.027344 93.582031 9.066406 77.921875 13.875 C 78.488281 13.6875 79.148438 13.5 79.714844 13.3125 C 78.488281 13.59375 77.355469 14.066406 76.226562 14.441406 C 70.1875 16.421875 64.242188 18.972656 58.582031 22.085938 C 53.488281 24.914062 48.960938 28.40625 44.714844 32.082031 C 43.960938 32.648438 43.207031 33.308594 42.453125 33.875 C 43.773438 32.554688 44.246094 31.800781 41.507812 33.96875 C 35.566406 38.5 30.1875 44.253906 25.28125 50.667969 C 24.054688 52.273438 22.925781 53.96875 21.699219 55.574219 C 20.566406 57.273438 19.433594 59.0625 18.300781 60.761719 C 16.132812 64.347656 14.054688 67.933594 12.074219 71.800781 C 9.90625 75.761719 7.828125 81.515625 6.320312 87.933594 C 5.660156 89.628906 5.566406 90.574219 5.566406 91.421875 C 5.28125 92.835938 5 94.15625 4.71875 95.574219 C 4.433594 97.269531 4.054688 98.96875 3.867188 100.761719 C 3.679688 102.460938 3.492188 104.15625 3.394531 105.949219 C 3.585938 104.253906 3.773438 102.554688 3.960938 100.855469 C 4.152344 99.15625 4.527344 97.460938 4.71875 95.667969 C 4.90625 94.347656 5.28125 93.121094 5.472656 91.894531 C 5.472656 92.835938 5.472656 93.78125 5.09375 95.667969 C 7.640625 83.875 11.980469 72.367188 18.394531 61.894531 C 24.8125 51.421875 32.925781 41.894531 42.453125 33.96875 C 41.414062 35.101562 40 36.613281 39.433594 37.273438 L 41.980469 34.726562 C 42.828125 33.875 43.773438 33.027344 44.714844 32.273438 C 51.035156 27.273438 57.828125 22.933594 65 19.441406 C 63.960938 20.007812 62.921875 20.574219 61.980469 21.234375 C 61.035156 21.800781 60.1875 22.367188 59.433594 23.027344 C 69.433594 17.460938 80.28125 13.5 91.601562 11.425781 C 97.261719 10.386719 102.921875 9.726562 108.675781 9.632812 C 114.433594 9.539062 120.1875 9.726562 125.847656 10.574219 C 147.167969 13.972656 166.976562 23.972656 182.355469 38.5 C 174.429688 30.292969 164.523438 23.214844 153.300781 18.121094 C 160.75 21.328125 167.921875 25.386719 174.523438 30.195312 C 181.128906 35.007812 187.070312 40.667969 192.449219 46.894531 C 193.863281 48.402344 194.996094 50.101562 196.316406 51.707031 C 197.542969 53.308594 198.675781 55.007812 199.902344 56.707031 C 202.164062 60.101562 204.242188 63.59375 206.035156 67.273438 C 209.710938 74.535156 212.542969 82.273438 214.429688 90.101562 C 213.863281 88.78125 213.203125 87.269531 212.542969 85.761719 C 211.882812 84.253906 211.128906 82.742188 210.46875 81.328125 C 209.808594 79.914062 208.957031 78.59375 208.296875 77.367188 C 207.921875 76.800781 207.636719 76.234375 207.261719 75.761719 C 206.882812 75.289062 206.601562 74.914062 206.316406 74.535156 C 206.222656 74.628906 206.410156 75.289062 206.695312 76.140625 C 206.976562 76.988281 207.261719 78.027344 207.542969 78.96875 C 208.109375 80.761719 208.390625 81.707031 207.070312 79.0625 C 205.9375 76.609375 204.714844 74.347656 203.582031 72.175781 C 202.355469 70.007812 201.222656 67.933594 199.996094 65.949219 C 197.636719 61.988281 195.183594 58.6875 192.921875 55.667969 C 188.203125 49.726562 183.675781 45.761719 179.617188 43.875 C 179.148438 43.78125 179.808594 44.820312 180.84375 46.328125 C 181.316406 47.082031 181.976562 48.027344 182.542969 49.066406 C 182.828125 49.535156 183.203125 50.007812 183.488281 50.574219 C 183.769531 51.046875 184.054688 51.613281 184.335938 52.082031 C 184.902344 53.121094 185.46875 54.066406 185.941406 54.914062 C 186.316406 55.761719 186.695312 56.515625 186.882812 57.082031 C 187.261719 58.121094 187.070312 58.308594 185.84375 56.988281 C 181.882812 52.460938 174.429688 44.535156 164.714844 38.121094 C 164.054688 37.648438 163.394531 37.179688 162.636719 36.707031 C 161.882812 36.234375 161.222656 35.761719 160.46875 35.292969 C 159.054688 34.347656 157.449219 33.5 155.941406 32.554688 C 155.5625 32.273438 154.808594 32.082031 153.863281 31.800781 C 148.300781 28.96875 142.542969 26.800781 137.449219 25.292969 C 132.355469 23.6875 127.828125 22.933594 124.527344 22.273438 C 123.300781 22.085938 122.074219 21.894531 120.941406 21.707031 C 119.714844 21.519531 118.488281 21.421875 117.355469 21.328125 C 116.128906 21.046875 114.996094 20.761719 114.148438 20.480469 C 112.640625 20.667969 111.035156 20.667969 109.527344 20.859375 C 103.015625 20.761719 96.507812 21.421875 90.28125 22.648438 C 88.488281 22.933594 86.695312 23.121094 85 23.5 C 83.207031 23.875 81.507812 24.160156 79.808594 24.726562 C 79.902344 24.914062 80.5625 24.914062 80 25.292969 C 76.128906 26.519531 72.453125 28.027344 68.867188 29.726562 C 65.28125 31.519531 61.695312 33.308594 58.394531 35.574219 C 57.640625 35.953125 56.980469 36.328125 56.320312 36.707031 C 55.660156 37.082031 55 37.460938 54.339844 37.839844 C 53.679688 38.214844 53.019531 38.5 52.359375 38.875 C 51.695312 39.253906 51.132812 39.535156 50.566406 39.914062 C 47.640625 43.214844 42.261719 48.121094 37.167969 54.066406 C 31.980469 59.914062 27.167969 67.082031 24.152344 73.308594 L 24.246094 73.308594 C 21.039062 79.535156 18.488281 86.140625 16.699219 93.121094 C 16.320312 94.253906 15.847656 95.289062 15.378906 96.234375 C 15.28125 98.027344 15 99.914062 15 100.761719 C 13.867188 106.328125 13.113281 111.140625 12.734375 116.042969 C 12.828125 116.894531 13.492188 118.589844 13.492188 120.476562 C 13.492188 121.421875 13.585938 122.363281 13.585938 123.308594 C 13.679688 124.25 13.679688 125.101562 13.773438 126.042969 C 13.960938 127.835938 14.246094 129.628906 14.433594 131.421875 C 14.621094 132.460938 14.8125 133.496094 14.90625 134.535156 L 15.1875 136.042969 L 15.566406 137.554688 C 15.753906 138.589844 16.039062 139.628906 16.226562 140.667969 C 16.507812 141.703125 16.792969 142.742188 17.074219 143.78125 C 20.753906 157.648438 27.546875 170.476562 36.507812 181.421875 C 36.601562 181.890625 36.507812 182.175781 36.414062 182.457031 C 37.261719 183.214844 38.207031 184.15625 39.054688 185.101562 C 39.527344 185.570312 39.90625 186.042969 40.375 186.515625 C 40.847656 186.890625 41.226562 187.269531 41.601562 187.648438 C 41.226562 187.457031 41.035156 187.363281 40.941406 187.457031 C 42.167969 188.496094 43.207031 189.34375 43.960938 190.101562 C 44.808594 190.855469 45.472656 191.515625 46.132812 192.175781 C 46.792969 192.835938 47.453125 193.496094 48.207031 194.15625 C 48.960938 194.816406 49.808594 195.664062 50.941406 196.609375 C 52.074219 197.363281 53.207031 197.835938 54.339844 198.589844 C 54.808594 198.96875 55.375 199.34375 55.941406 199.722656 C 60.847656 204.34375 67.074219 207.269531 73.960938 210.003906 C 80.753906 213.023438 88.015625 215.289062 95.375 216.703125 C 98.300781 217.175781 100.375 217.742188 102.167969 218.117188 C 103.109375 218.304688 103.960938 218.589844 104.808594 218.777344 C 105.941406 218.96875 106.882812 219.0625 107.921875 219.25 Z M 107.921875 219.25 " fill-opacity="1" fill-rule="nonzero"/></g><path fill="#97b450" d="M 31.699219 59.726562 C 27.453125 65.101562 23.867188 70.855469 20.753906 76.894531 C 23.773438 70.289062 26.886719 64.347656 31.699219 59.726562 Z M 31.699219 59.726562 " fill-opacity="1" fill-rule="nonzero"/><path fill="#97b450" d="M 188.203125 61.328125 C 188.769531 62.554688 189.335938 63.78125 189.996094 65.101562 C 190.65625 66.421875 191.316406 67.742188 191.976562 69.253906 C 183.582031 54.820312 171.410156 42.554688 156.507812 34.160156 L 156.507812 34.066406 C 162.542969 37.273438 169.242188 42.273438 174.808594 47.554688 C 180.5625 52.839844 185.089844 58.308594 188.203125 61.328125 Z M 188.203125 61.328125 " fill-opacity="1" fill-rule="nonzero"/><path fill="#97b450" d="M 44.246094 46.140625 C 44.054688 46.328125 43.867188 46.613281 43.679688 46.894531 C 43.773438 46.707031 43.960938 46.515625 44.246094 46.140625 Z M 44.246094 46.140625 " fill-opacity="1" fill-rule="nonzero"/><path fill="#97b450" d="M 212.164062 87.460938 C 212.355469 88.027344 212.449219 88.59375 212.636719 89.253906 L 211.601562 85.949219 C 211.222656 84.820312 210.84375 83.78125 210.46875 82.742188 C 209.710938 80.574219 208.769531 78.496094 207.921875 76.328125 C 209.429688 79.628906 210.9375 83.402344 212.164062 87.460938 Z M 212.164062 87.460938 " fill-opacity="1" fill-rule="nonzero"/><path fill="#97b450" d="M 213.769531 136.234375 C 213.582031 137.363281 213.296875 138.496094 213.109375 139.628906 C 212.824219 140.761719 212.636719 141.894531 212.355469 143.023438 C 211.695312 145.289062 211.222656 147.554688 210.375 149.722656 C 208.957031 154.15625 207.164062 158.496094 205.183594 162.742188 C 199.714844 173.496094 192.261719 182.835938 183.957031 190.289062 C 198.769531 175.949219 209.429688 156.988281 213.769531 136.234375 Z M 213.769531 136.234375 " fill-opacity="1" fill-rule="nonzero"/><path fill="#97b450" d="M 201.695312 90.667969 C 201.882812 91.515625 202.070312 92.367188 202.261719 93.214844 C 202.355469 94.0625 202.542969 94.914062 202.636719 95.761719 C 202.921875 97.460938 203.109375 99.253906 203.296875 100.949219 C 203.015625 99.253906 202.730469 97.460938 202.355469 95.761719 L 201.789062 93.214844 C 201.601562 92.367188 201.316406 91.515625 201.128906 90.667969 C 201.503906 91.421875 201.601562 90.855469 201.695312 90.667969 Z M 201.695312 90.667969 " fill-opacity="1" fill-rule="nonzero"/><path fill="#97b450" d="M 194.523438 53.59375 C 195.089844 54.347656 195.65625 55.101562 196.128906 55.855469 C 194.617188 53.96875 193.015625 52.273438 191.410156 50.480469 C 192.070312 51.046875 193.488281 52.554688 194.523438 53.59375 Z M 194.523438 53.59375 " fill-opacity="1" fill-rule="nonzero"/><path fill="#97b450" d="M 203.390625 127.554688 C 203.582031 126.328125 203.675781 125.007812 203.863281 123.78125 C 203.957031 122.554688 204.148438 121.234375 204.148438 120.007812 C 204.242188 121.515625 204.242188 123.027344 204.335938 124.535156 C 204.050781 125.289062 203.769531 126.328125 203.390625 127.554688 Z M 203.390625 127.554688 " fill-opacity="1" fill-rule="nonzero"/><path fill="#97b450" d="M 190.65625 164.722656 C 189.714844 166.230469 188.769531 167.648438 187.828125 169.0625 C 186.789062 170.382812 185.84375 171.796875 184.808594 173.023438 C 187.167969 169.722656 189.523438 166.328125 191.410156 162.742188 C 191.222656 163.683594 190.941406 164.34375 190.65625 164.722656 Z M 190.65625 164.722656 " fill-opacity="1" fill-rule="nonzero"/></g></g></g></g><g clip-path="url(#e8c17dd87c)"><g clip-path="url(#294cf84e81)"><g clip-path="url(#fa00901c32)"><g clip-path="url(#a5a3e6ff46)"><path fill="#000000" d="M 64.515625 128.574219 C 64.304688 128.972656 64.371094 129.457031 64.679688 129.789062 C 81.332031 147.6875 96.21875 156.589844 110.628906 157.914062 C 132.199219 159.894531 152.859375 144.871094 177.019531 116.933594 C 177.203125 116.71875 177.292969 116.441406 177.269531 116.164062 C 177.25 115.882812 177.117188 115.621094 176.902344 115.4375 C 153.539062 95.585938 132.351562 85.898438 113.605469 87.601562 C 94.789062 89.304688 78.3125 102.445312 64.515625 128.574219 Z M 66.734375 128.902344 C 80.027344 104.023438 95.730469 91.339844 113.804688 89.699219 C 131.890625 88.058594 152.230469 97.433594 174.722656 116.355469 C 151.453125 143.101562 131.65625 157.726562 110.816406 155.8125 C 96.960938 154.535156 82.714844 145.9375 66.734375 128.902344 Z M 66.734375 128.902344 " fill-opacity="1" fill-rule="evenodd"/></g></g></g></g><g clip-path="url(#de7b9edf43)"><g clip-path="url(#7dac87873a)"><g clip-path="url(#50f2d370d4)"><g clip-path="url(#9b87c6ebc8)"><path fill="#000000" d="M 66.324219 129.957031 C 72.390625 126.765625 90.042969 122.648438 105.507812 120.375 C 115.742188 118.867188 125.015625 118.148438 129.285156 119.117188 C 129.851562 119.246094 130.417969 118.890625 130.546875 118.320312 C 130.671875 117.753906 130.3125 117.1875 129.746094 117.058594 C 125.339844 116.058594 115.761719 116.730469 105.195312 118.285156 C 89.457031 120.601562 71.511719 124.839844 65.335938 128.085938 C 64.820312 128.355469 64.625 128.996094 64.898438 129.511719 C 65.167969 130.027344 65.808594 130.226562 66.324219 129.957031 Z M 66.324219 129.957031 " fill-opacity="1" fill-rule="evenodd"/></g></g></g></g><g mask="url(#598f54c0fe)"><g transform="matrix(1, 0, 0, 1, 63, 85)"><g clip-path="url(#9ea78f3b9b)"><g clip-path="url(#7a1f1ef481)"><g clip-path="url(#45df02fbdc)"><g mask="url(#660c031c54)"><g transform="matrix(1, 0, 0, 1, 3, 4)"><g clip-path="url(#60d9cf1482)"><g clip-path="url(#20cdc23ac2)"><g clip-path="url(#5c4c447208)"><rect x="-335.997" width="1281.744" fill="#97b450" y="-173.084" height="399.168" fill-opacity="1"/></g></g></g></g></g></g></g></g></g></g><path stroke-linecap="butt" transform="matrix(0, -0.749747, 0.749747, 0, 89.762138, 200.476654)" fill="none" stroke-linejoin="miter" d="M 0.000121838 3.500621 L 210.414775 3.500621 " stroke="#000000" stroke-width="7" stroke-opacity="1" stroke-miterlimit="4"/><path stroke-linecap="butt" transform="matrix(0, 0.749747, -0.749747, 0, 131.681029, 42.72513)" fill="none" stroke-linejoin="miter" d="M 0.00191075 2.99759 L 210.416564 2.99759 " stroke="#97b450" stroke-width="6" stroke-opacity="1" stroke-miterlimit="4"/><path stroke-linecap="butt" transform="matrix(-0.749747, 0.00000000130856, -0.00000000130856, -0.749747, 140.355209, 47.970115)" fill="none" stroke-linejoin="miter" d="M -0.000346829 3.49779 L 65.438371 3.49779 " stroke="#000000" stroke-width="7" stroke-opacity="1" stroke-miterlimit="4"/><path stroke-linecap="butt" transform="matrix(-0.749747, -0.00000000130856, 0.00000000130856, -0.749747, 140.355209, 200.479876)" fill="none" stroke-linejoin="miter" d="M -0.000346817 3.500389 L 65.438371 3.500389 " stroke="#000000" stroke-width="7" stroke-opacity="1" stroke-miterlimit="4"/><path stroke-linecap="butt" transform="matrix(0.749125, -0.0305463, 0.0305463, 0.749125, 90.272208, 119.629956)" fill="none" stroke-linejoin="miter" d="M -0.0017303 2.000865 L 49.649906 2.002266 " stroke="#000000" stroke-width="4" stroke-opacity="1" stroke-miterlimit="4"/></svg>