<svg xmlns="http://www.w3.org/2000/svg" xmlns:xlink="http://www.w3.org/1999/xlink" width="305" zoomAndPan="magnify" viewBox="0 0 228.75 231" height="308" preserveAspectRatio="xMidYMid meet" version="1.0"><defs><filter x="0%" y="0%" width="100%" height="100%" id="b3bd856692"><feColorMatrix values="0 0 0 0 1 0 0 0 0 1 0 0 0 0 1 0 0 0 1 0" color-interpolation-filters="sRGB"/></filter><clipPath id="b5555e39f0"><path d="M 0 0.125 L 228.5 0.125 L 228.5 230.871094 L 0 230.871094 Z M 0 0.125 " clip-rule="nonzero"/></clipPath><mask id="587cc40c11"><g filter="url(#b3bd856692)"><rect x="-22.875" width="274.5" fill="#000000" y="-23.1" height="277.2" fill-opacity="0.71"/></g></mask><clipPath id="8c7763a69b"><path d="M 0 0.367188 L 228.230469 0.367188 L 228.230469 230.125 L 0 230.125 Z M 0 0.367188 " clip-rule="nonzero"/></clipPath><clipPath id="acfb6e3108"><rect x="0" width="229" y="0" height="231"/></clipPath><clipPath id="2cdc621d4c"><path d="M 64 87 L 178 87 L 178 159 L 64 159 Z M 64 87 " clip-rule="nonzero"/></clipPath><clipPath id="6404452a29"><path d="M 112.179688 61.351562 L 177.894531 115.90625 L 122.859375 182.195312 L 57.148438 127.640625 Z M 112.179688 61.351562 " clip-rule="nonzero"/></clipPath><clipPath id="48087753b6"><path d="M 112.179688 61.351562 L 177.894531 115.90625 L 122.859375 182.195312 L 57.148438 127.640625 Z M 112.179688 61.351562 " clip-rule="nonzero"/></clipPath><clipPath id="58de452067"><path d="M 112.179688 61.351562 L 177.894531 115.90625 L 122.859375 182.195312 L 57.148438 127.640625 Z M 112.179688 61.351562 " clip-rule="nonzero"/></clipPath><clipPath id="8ef0d883f6"><path d="M 64 116 L 131 116 L 131 131 L 64 131 Z M 64 116 " clip-rule="nonzero"/></clipPath><clipPath id="384038377d"><path d="M 112.179688 61.351562 L 177.894531 115.90625 L 122.859375 182.195312 L 57.148438 127.640625 Z M 112.179688 61.351562 " clip-rule="nonzero"/></clipPath><clipPath id="c2769643c1"><path d="M 112.179688 61.351562 L 177.894531 115.90625 L 122.859375 182.195312 L 57.148438 127.640625 Z M 112.179688 61.351562 " clip-rule="nonzero"/></clipPath><clipPath id="2ef4b9dc0f"><path d="M 112.179688 61.351562 L 177.894531 115.90625 L 122.859375 182.195312 L 57.148438 127.640625 Z M 112.179688 61.351562 " clip-rule="nonzero"/></clipPath></defs><g clip-path="url(#b5555e39f0)"><g mask="url(#587cc40c11)"><g transform="matrix(1, 0, 0, 1, 0, -0.00000000000000111)"><g clip-path="url(#acfb6e3108)"><path fill="#b7d76a" d="M 207.007812 174.488281 C 200.976562 184.765625 193.339844 194.097656 184.480469 201.828125 C 180.050781 205.691406 175.429688 209.179688 170.621094 212.195312 C 165.816406 215.210938 160.914062 217.945312 155.917969 220.113281 C 163.835938 216.53125 171.375 212.007812 178.351562 206.726562 C 173.167969 210.6875 167.984375 213.894531 162.609375 216.625 C 161.289062 217.285156 159.875 218.039062 158.460938 218.605469 C 157.046875 219.171875 155.632812 219.832031 154.21875 220.398438 C 152.804688 220.960938 151.296875 221.433594 149.789062 222 C 148.28125 222.566406 146.679688 222.941406 145.171875 223.507812 C 146.113281 223.035156 147.246094 222.566406 148.5625 222.09375 C 149.882812 221.621094 151.203125 220.960938 152.617188 220.398438 C 153.9375 219.832031 155.164062 219.265625 156.199219 218.699219 C 157.238281 218.132812 157.992188 217.664062 158.367188 217.285156 C 172.601562 210.5 185.421875 200.789062 195.886719 189.007812 C 206.347656 177.222656 214.363281 163.273438 219.167969 148.472656 C 218.226562 154.597656 216.246094 159.40625 213.890625 163.367188 C 211.628906 167.417969 209.175781 170.71875 207.007812 174.488281 Z M 207.007812 174.488281 " fill-opacity="1" fill-rule="nonzero"/><path fill="#b7d76a" d="M 110.480469 228.222656 C 112.082031 228.128906 113.589844 228.128906 115.195312 228.03125 C 116.703125 228.03125 118.304688 227.84375 119.8125 227.75 C 116.511719 228.128906 113.308594 228.222656 110.480469 228.222656 Z M 110.480469 228.222656 " fill-opacity="1" fill-rule="nonzero"/><path fill="#b7d76a" d="M 135.742188 13.953125 C 134.046875 13.671875 132.351562 13.199219 130.746094 13.011719 C 129.050781 12.726562 127.449219 12.445312 125.75 12.257812 C 127.449219 12.351562 129.050781 12.726562 130.746094 12.917969 C 132.445312 13.105469 134.046875 13.578125 135.742188 13.953125 Z M 135.742188 13.953125 " fill-opacity="1" fill-rule="nonzero"/><path fill="#b7d76a" d="M 217.566406 134.898438 C 217.753906 133.105469 217.851562 131.222656 218.039062 129.335938 C 219.828125 115.382812 219.074219 100.867188 215.210938 86.726562 C 217.285156 94.363281 218.792969 102.46875 219.359375 110.671875 C 219.925781 118.871094 219.265625 127.167969 217.566406 134.898438 Z M 217.566406 134.898438 " fill-opacity="1" fill-rule="nonzero"/><path fill="#b7d76a" d="M 212.476562 149.226562 C 210.308594 156.011719 207.386719 162.515625 203.804688 168.644531 C 200.222656 174.679688 195.980469 180.238281 191.359375 185.140625 C 200.503906 175.242188 207.953125 162.894531 212.476562 149.226562 Z M 212.476562 149.226562 " fill-opacity="1" fill-rule="nonzero"/><path fill="#b7d76a" d="M 44.304688 45.625 C 44.398438 45.722656 44.304688 45.910156 44.117188 46.285156 C 43.832031 46.570312 43.644531 46.851562 43.550781 47.136719 C 39.6875 50.527344 36.105469 54.300781 32.804688 58.257812 C 33.558594 57.222656 34.03125 56.089844 34.878906 55.054688 C 35.820312 53.921875 36.667969 53.167969 37.421875 52.414062 C 38.179688 51.660156 38.835938 51.09375 39.496094 50.527344 C 40.15625 49.964844 40.816406 49.304688 41.570312 48.453125 C 42.324219 47.699219 43.269531 46.757812 44.304688 45.625 Z M 44.304688 45.625 " fill-opacity="1" fill-rule="nonzero"/><path fill="#b7d76a" d="M 139.421875 14.894531 C 139.515625 14.894531 139.703125 14.894531 139.796875 14.894531 C 140.929688 15.179688 142.058594 15.460938 143.191406 15.839844 C 143.285156 15.933594 143.472656 15.933594 143.566406 16.027344 C 142.152344 15.554688 140.835938 15.179688 139.421875 14.894531 Z M 139.421875 14.894531 " fill-opacity="1" fill-rule="nonzero"/><path fill="#b7d76a" d="M 49.394531 41.289062 C 49.679688 41.480469 49.867188 41.574219 50.433594 41.480469 C 49.207031 42.328125 48.171875 43.269531 47.039062 44.214844 C 45.90625 45.0625 44.777344 46.097656 43.738281 47.039062 C 43.929688 46.757812 44.117188 46.476562 44.304688 46.285156 C 44.589844 45.910156 45.058594 45.53125 45.4375 45.0625 C 45.90625 44.683594 46.378906 44.214844 46.851562 43.835938 C 47.699219 42.988281 48.640625 42.140625 49.394531 41.289062 Z M 49.394531 41.289062 " fill-opacity="1" fill-rule="nonzero"/><path fill="#b7d76a" d="M 110.953125 21.683594 C 112.742188 21.683594 114.441406 21.210938 115.289062 21.117188 C 120 21.777344 124.714844 22.625 130.085938 24.039062 C 130.9375 24.132812 132.726562 24.511719 134.519531 24.605469 C 135.460938 25.078125 136.496094 25.546875 137.535156 26.019531 C 125.847656 22.4375 113.121094 21.023438 100.300781 22.25 C 101.996094 22.058594 103.789062 21.964844 105.578125 21.777344 C 107.273438 21.683594 109.066406 21.589844 110.953125 21.683594 Z M 110.953125 21.683594 " fill-opacity="1" fill-rule="nonzero"/><g clip-path="url(#8c7763a69b)"><path fill="#b7d76a" d="M 107.839844 219.171875 C 103.410156 219.171875 98.792969 218.699219 94.171875 217.945312 C 89.554688 217.097656 84.933594 215.964844 80.410156 214.550781 C 71.359375 211.628906 62.875 207.578125 55.238281 203.523438 C 59.386719 206.445312 64.195312 209.367188 69.285156 211.722656 C 74.28125 214.082031 79.5625 216.0625 84.367188 217.664062 C 93.984375 220.679688 101.902344 221.8125 103.410156 223.128906 C 104.164062 223.789062 102.75 223.980469 99.828125 223.886719 C 98.414062 223.789062 96.625 223.601562 94.644531 223.320312 C 93.605469 223.226562 92.570312 222.941406 91.4375 222.753906 C 90.308594 222.472656 89.175781 222.375 87.949219 222 C 83.238281 220.867188 77.957031 219.171875 73.054688 217.191406 C 68.15625 215.210938 63.628906 212.855469 59.953125 210.96875 C 61.746094 212.195312 61.746094 212.195312 63.628906 213.421875 C 62.6875 212.761719 61.839844 212.195312 60.894531 211.628906 C 60.425781 211.347656 59.953125 211.066406 59.480469 210.875 C 59.011719 210.59375 58.539062 210.40625 58.164062 210.214844 C 59.011719 210.875 60.140625 211.628906 61.460938 212.382812 C 62.6875 213.136719 64.007812 213.988281 65.328125 214.742188 C 66.644531 215.496094 67.871094 216.25 68.910156 216.816406 C 69.945312 217.378906 70.886719 217.945312 71.359375 218.324219 C 71.359375 218.324219 70.417969 218.039062 69.378906 217.851562 C 68.910156 217.757812 68.4375 217.570312 68.058594 217.570312 C 67.683594 217.476562 67.496094 217.378906 67.496094 217.378906 C 72.398438 220.492188 80.03125 223.695312 88.140625 225.957031 C 96.246094 228.222656 104.542969 229.257812 110.480469 230.199219 C 96.058594 228.691406 80.691406 224.921875 66.082031 217.757812 C 58.726562 214.175781 51.65625 209.839844 44.871094 204.65625 C 38.179688 199.46875 31.957031 193.4375 26.300781 186.839844 C 20.738281 180.144531 15.835938 172.792969 11.878906 164.875 C 7.917969 157.050781 4.902344 148.566406 2.921875 139.988281 C 0.847656 131.316406 0 122.453125 0.09375 113.6875 C 0.1875 104.921875 1.320312 96.25 3.582031 87.953125 C 5.9375 78.714844 9.238281 69.757812 13.574219 61.558594 C 15.648438 57.410156 18.097656 53.546875 20.644531 49.679688 C 23.285156 45.910156 26.015625 42.234375 28.941406 38.839844 C 31.863281 35.351562 35.066406 32.148438 38.273438 29.128906 C 41.570312 26.113281 44.964844 23.191406 48.546875 20.644531 C 55.710938 15.367188 63.347656 10.9375 71.359375 7.449219 C 72.113281 7.167969 73.054688 6.789062 74.09375 6.410156 C 75.128906 6.035156 76.261719 5.65625 77.488281 5.28125 C 78.710938 4.902344 80.03125 4.527344 81.445312 4.148438 C 82.859375 3.867188 84.367188 3.488281 85.875 3.113281 C 91.910156 1.792969 98.695312 1.039062 104.351562 0.851562 C 114.34375 0.191406 124.433594 0.757812 134.328125 2.546875 C 136.78125 3.113281 139.230469 3.488281 141.683594 4.148438 L 145.359375 5.09375 L 148.941406 6.222656 L 150.730469 6.789062 L 152.523438 7.449219 L 156.105469 8.675781 L 159.59375 10.089844 L 161.382812 10.75 L 163.082031 11.503906 C 201.917969 29.789062 227.84375 70.511719 228.21875 116.234375 C 228.21875 118.496094 228.03125 120.945312 227.746094 123.113281 C 227.371094 125.1875 226.898438 126.882812 226.523438 127.542969 C 226.144531 128.203125 225.769531 127.921875 225.675781 126.128906 C 225.578125 125.1875 225.578125 123.960938 225.484375 122.171875 C 225.484375 121.324219 225.390625 120.285156 225.390625 119.15625 C 225.390625 118.023438 225.390625 116.796875 225.296875 115.476562 C 224.824219 106.429688 223.316406 97.378906 220.960938 88.613281 C 218.414062 79.75 215.023438 71.265625 210.6875 63.253906 C 211.0625 63.632812 211.628906 64.386719 212.195312 65.421875 C 212.476562 65.894531 212.855469 66.460938 213.136719 67.121094 C 213.417969 67.683594 213.796875 68.34375 214.078125 69.003906 C 214.738281 70.324219 215.398438 71.738281 215.964844 73.058594 C 216.53125 74.378906 217.097656 75.507812 217.566406 76.453125 C 215.398438 70.042969 212.757812 64.386719 209.742188 59.011719 C 206.726562 53.640625 203.238281 48.550781 198.996094 43.457031 C 204.652344 50.246094 209.554688 57.691406 213.609375 65.613281 C 208.613281 55.714844 201.917969 45.910156 193.625 37.332031 C 185.421875 28.660156 175.523438 21.304688 164.777344 15.648438 C 160.820312 13.578125 157.332031 11.21875 153.183594 9.238281 C 152.144531 8.769531 151.015625 8.203125 149.882812 7.730469 C 148.753906 7.261719 147.527344 6.882812 146.300781 6.410156 C 145.078125 5.941406 143.664062 5.65625 142.25 5.375 C 140.835938 5.09375 139.324219 4.714844 137.722656 4.621094 C 145.359375 6.695312 152.898438 9.617188 159.96875 13.292969 C 167.039062 16.96875 173.828125 21.402344 180.050781 26.398438 C 192.492188 36.484375 202.957031 49.113281 210.496094 63.253906 L 210.402344 63.160156 C 213.796875 69.476562 216.53125 75.792969 218.511719 82.203125 C 220.582031 88.613281 221.996094 95.210938 222.941406 102.09375 C 222.75 101.054688 222.65625 99.925781 222.46875 98.886719 C 222.28125 97.851562 222.09375 96.8125 221.808594 95.777344 C 221.433594 93.703125 220.960938 91.722656 220.582031 89.839844 L 221.335938 93.515625 C 221.527344 94.738281 221.714844 95.964844 221.902344 97.191406 C 222.375 99.640625 222.46875 102.1875 222.75 104.636719 C 223.128906 109.632812 223.316406 114.535156 223.035156 119.53125 C 222.941406 124.433594 222.28125 129.429688 221.527344 134.238281 C 221.054688 136.6875 220.679688 139.140625 220.019531 141.496094 C 219.734375 142.722656 219.453125 143.851562 219.167969 145.078125 L 218.132812 148.660156 C 219.828125 141.96875 220.960938 134.992188 221.527344 127.921875 C 221.996094 120.851562 221.902344 113.6875 221.148438 106.617188 C 219.640625 92.382812 215.492188 78.242188 208.707031 65.328125 C 202.011719 52.507812 192.679688 40.914062 181.652344 31.675781 C 170.621094 22.4375 157.894531 15.460938 144.699219 11.3125 C 151.863281 14.332031 160.160156 17.914062 167.699219 22.4375 C 175.242188 26.960938 181.933594 32.335938 186.269531 37.613281 C 181.746094 33.277344 176.84375 29.222656 171.660156 25.640625 C 166.476562 22.058594 160.914062 18.949219 155.164062 16.308594 C 149.414062 13.671875 143.378906 11.503906 137.15625 9.804688 C 130.9375 8.109375 124.621094 7.070312 118.117188 6.507812 C 119.058594 6.507812 120 6.601562 120.945312 6.601562 C 121.886719 6.601562 122.828125 6.695312 123.773438 6.789062 C 115.855469 5.375 107.371094 5.1875 99.074219 6.035156 C 90.777344 6.882812 82.578125 8.863281 74.847656 11.3125 C 73.433594 11.785156 72.113281 12.164062 70.699219 12.726562 C 72.019531 12.164062 73.433594 11.785156 74.847656 11.3125 C 88.988281 6.789062 103.789062 5.28125 118.023438 6.507812 C 111.421875 6.316406 104.449219 6.316406 96.152344 7.261719 C 98.414062 7.167969 101.148438 7.167969 104.164062 7.070312 C 107.179688 7.070312 110.386719 7.070312 113.589844 7.355469 C 122.074219 7.636719 130.464844 8.957031 138.570312 11.21875 C 126.410156 7.921875 113.496094 7.167969 101.996094 8.769531 C 110.667969 8.390625 119.53125 8.769531 128.203125 10.371094 C 136.875 11.972656 145.359375 14.519531 153.277344 18.195312 C 148.847656 16.308594 144.417969 14.707031 139.796875 13.480469 C 135.179688 12.164062 130.558594 11.3125 125.847656 10.652344 C 110.007812 8.109375 93.511719 9.144531 77.863281 13.953125 C 78.429688 13.765625 79.089844 13.578125 79.65625 13.386719 C 78.429688 13.671875 77.296875 14.140625 76.167969 14.519531 C 70.132812 16.5 64.195312 19.042969 58.539062 22.15625 C 53.449219 24.984375 48.925781 28.46875 44.683594 32.148438 C 43.929688 32.710938 43.175781 33.371094 42.421875 33.9375 C 43.738281 32.617188 44.210938 31.863281 41.476562 34.03125 C 35.539062 38.558594 30.164062 44.308594 25.261719 50.71875 C 24.039062 52.320312 22.90625 54.015625 21.679688 55.621094 C 20.550781 57.316406 19.417969 59.105469 18.289062 60.804688 C 16.121094 64.386719 14.046875 67.96875 12.066406 71.832031 C 9.898438 75.792969 7.824219 81.542969 6.316406 87.953125 C 5.65625 89.648438 5.5625 90.59375 5.5625 91.441406 C 5.277344 92.855469 4.996094 94.175781 4.714844 95.589844 C 4.429688 97.285156 4.054688 98.980469 3.863281 100.773438 C 3.675781 102.46875 3.488281 104.167969 3.394531 105.957031 C 3.582031 104.261719 3.769531 102.5625 3.960938 100.867188 C 4.148438 99.171875 4.523438 97.472656 4.714844 95.683594 C 4.902344 94.363281 5.277344 93.136719 5.46875 91.910156 C 5.46875 92.855469 5.46875 93.796875 5.089844 95.683594 C 7.636719 83.898438 11.972656 72.398438 18.382812 61.933594 C 24.792969 51.472656 32.898438 41.949219 42.421875 34.03125 C 41.382812 35.164062 39.96875 36.671875 39.402344 37.332031 L 41.949219 34.785156 C 42.796875 33.9375 43.738281 33.089844 44.683594 32.335938 C 51 27.339844 57.785156 23.003906 64.949219 19.515625 C 63.914062 20.082031 62.875 20.644531 61.933594 21.304688 C 60.992188 21.871094 60.140625 22.4375 59.386719 23.097656 C 69.378906 17.535156 80.222656 13.578125 91.53125 11.503906 C 97.1875 10.464844 102.84375 9.804688 108.59375 9.710938 C 114.34375 9.617188 120.09375 9.804688 125.75 10.652344 C 147.054688 14.046875 166.851562 24.039062 182.21875 38.558594 C 174.300781 30.355469 164.402344 23.285156 153.183594 18.195312 C 160.628906 21.402344 167.792969 25.453125 174.394531 30.261719 C 180.992188 35.070312 186.929688 40.726562 192.304688 46.945312 C 193.71875 48.453125 194.847656 50.152344 196.167969 51.753906 C 197.394531 53.355469 198.523438 55.054688 199.75 56.75 C 202.011719 60.144531 204.085938 63.632812 205.878906 67.308594 C 209.554688 74.566406 212.382812 82.296875 214.269531 90.121094 C 213.703125 88.800781 213.042969 87.292969 212.382812 85.785156 C 211.722656 84.277344 210.96875 82.769531 210.308594 81.355469 C 209.648438 79.941406 208.800781 78.621094 208.140625 77.394531 C 207.761719 76.828125 207.480469 76.261719 207.105469 75.792969 C 206.726562 75.320312 206.445312 74.945312 206.160156 74.566406 C 206.066406 74.660156 206.253906 75.320312 206.539062 76.167969 C 206.820312 77.019531 207.105469 78.054688 207.386719 78.996094 C 207.953125 80.789062 208.234375 81.730469 206.914062 79.089844 C 205.785156 76.640625 204.558594 74.378906 203.425781 72.210938 C 202.203125 70.042969 201.070312 67.96875 199.84375 65.988281 C 197.488281 62.03125 195.039062 58.730469 192.773438 55.714844 C 188.0625 49.773438 183.535156 45.816406 179.484375 43.929688 C 179.011719 43.835938 179.671875 44.871094 180.707031 46.382812 C 181.179688 47.136719 181.839844 48.078125 182.40625 49.113281 C 182.6875 49.585938 183.066406 50.058594 183.347656 50.625 C 183.632812 51.09375 183.914062 51.660156 184.195312 52.132812 C 184.761719 53.167969 185.328125 54.109375 185.800781 54.960938 C 186.175781 55.808594 186.554688 56.5625 186.742188 57.128906 C 187.117188 58.164062 186.929688 58.351562 185.703125 57.03125 C 181.746094 52.507812 174.296875 44.589844 164.589844 38.179688 C 163.929688 37.707031 163.269531 37.238281 162.515625 36.765625 C 161.761719 36.292969 161.101562 35.824219 160.347656 35.351562 C 158.933594 34.410156 157.332031 33.5625 155.824219 32.617188 C 155.445312 32.335938 154.691406 32.148438 153.75 31.863281 C 148.1875 29.035156 142.4375 26.867188 137.347656 25.359375 C 132.257812 23.757812 127.730469 23.003906 124.433594 22.34375 C 123.207031 22.15625 121.980469 21.964844 120.851562 21.777344 C 119.625 21.589844 118.398438 21.496094 117.265625 21.402344 C 116.042969 21.117188 114.910156 20.835938 114.0625 20.550781 C 112.554688 20.742188 110.953125 20.742188 109.445312 20.929688 C 102.9375 20.835938 96.433594 21.496094 90.214844 22.71875 C 88.421875 23.003906 86.632812 23.191406 84.933594 23.570312 C 83.144531 23.945312 81.445312 24.226562 79.75 24.792969 C 79.84375 24.984375 80.503906 24.984375 79.9375 25.359375 C 76.074219 26.585938 72.398438 28.09375 68.816406 29.789062 C 65.234375 31.582031 61.648438 33.371094 58.351562 35.632812 C 57.597656 36.011719 56.9375 36.390625 56.277344 36.765625 C 55.617188 37.144531 54.957031 37.519531 54.296875 37.898438 C 53.636719 38.273438 52.976562 38.558594 52.316406 38.933594 C 51.65625 39.3125 51.09375 39.59375 50.527344 39.972656 C 47.605469 43.269531 42.230469 48.171875 37.140625 54.109375 C 31.957031 59.957031 27.148438 67.121094 24.132812 73.339844 L 24.226562 73.339844 C 21.019531 79.5625 18.476562 86.160156 16.683594 93.136719 C 16.308594 94.269531 15.835938 95.304688 15.367188 96.25 C 15.269531 98.039062 14.988281 99.925781 14.988281 100.773438 C 13.855469 106.335938 13.101562 111.140625 12.726562 116.042969 C 12.820312 116.890625 13.480469 118.589844 13.480469 120.472656 C 13.480469 121.417969 13.574219 122.359375 13.574219 123.300781 C 13.667969 124.246094 13.667969 125.09375 13.761719 126.035156 C 13.953125 127.828125 14.234375 129.617188 14.421875 131.410156 C 14.609375 132.445312 14.800781 133.484375 14.894531 134.519531 L 15.175781 136.027344 L 15.554688 137.535156 C 15.742188 138.574219 16.023438 139.609375 16.214844 140.648438 C 16.496094 141.683594 16.78125 142.722656 17.0625 143.757812 C 20.738281 157.617188 27.527344 170.4375 36.480469 181.371094 C 36.574219 181.84375 36.480469 182.125 36.386719 182.40625 C 37.234375 183.160156 38.179688 184.105469 39.027344 185.046875 C 39.496094 185.519531 39.875 185.988281 40.347656 186.460938 C 40.816406 186.839844 41.195312 187.214844 41.570312 187.59375 C 41.195312 187.402344 41.007812 187.308594 40.910156 187.402344 C 42.136719 188.441406 43.175781 189.289062 43.929688 190.042969 C 44.777344 190.796875 45.4375 191.457031 46.097656 192.117188 C 46.757812 192.777344 47.417969 193.4375 48.171875 194.097656 C 48.925781 194.757812 49.773438 195.605469 50.902344 196.546875 C 52.035156 197.300781 53.167969 197.773438 54.296875 198.527344 C 54.769531 198.90625 55.335938 199.28125 55.898438 199.660156 C 60.800781 204.277344 67.023438 207.199219 73.90625 209.933594 C 80.691406 212.949219 87.949219 215.210938 95.304688 216.625 C 98.226562 217.097656 100.300781 217.664062 102.089844 218.039062 C 103.035156 218.230469 103.882812 218.511719 104.730469 218.699219 C 105.859375 218.890625 106.804688 218.984375 107.839844 219.171875 Z M 107.839844 219.171875 " fill-opacity="1" fill-rule="nonzero"/></g><path fill="#b7d76a" d="M 31.671875 59.765625 C 27.429688 65.140625 23.847656 70.890625 20.738281 76.921875 C 23.753906 70.324219 26.867188 64.386719 31.671875 59.765625 Z M 31.671875 59.765625 " fill-opacity="1" fill-rule="nonzero"/><path fill="#b7d76a" d="M 188.0625 61.371094 C 188.628906 62.59375 189.191406 63.820312 189.851562 65.140625 C 190.511719 66.460938 191.171875 67.78125 191.832031 69.289062 C 183.441406 54.863281 171.28125 42.609375 156.386719 34.21875 L 156.386719 34.125 C 162.421875 37.332031 169.113281 42.328125 174.675781 47.605469 C 180.425781 52.886719 184.949219 58.351562 188.0625 61.371094 Z M 188.0625 61.371094 " fill-opacity="1" fill-rule="nonzero"/><path fill="#b7d76a" d="M 44.210938 46.191406 C 44.023438 46.382812 43.832031 46.664062 43.644531 46.945312 C 43.738281 46.757812 43.929688 46.570312 44.210938 46.191406 Z M 44.210938 46.191406 " fill-opacity="1" fill-rule="nonzero"/><path fill="#b7d76a" d="M 212.003906 87.480469 C 212.195312 88.046875 212.289062 88.613281 212.476562 89.273438 L 211.441406 85.972656 C 211.0625 84.84375 210.6875 83.804688 210.308594 82.769531 C 209.554688 80.601562 208.613281 78.527344 207.761719 76.359375 C 209.273438 79.65625 210.78125 83.429688 212.003906 87.480469 Z M 212.003906 87.480469 " fill-opacity="1" fill-rule="nonzero"/><path fill="#b7d76a" d="M 213.609375 136.21875 C 213.417969 137.347656 213.136719 138.480469 212.949219 139.609375 C 212.664062 140.742188 212.476562 141.875 212.195312 143.003906 C 211.535156 145.265625 211.0625 147.527344 210.214844 149.695312 C 208.800781 154.128906 207.007812 158.464844 205.03125 162.707031 C 199.5625 173.453125 192.113281 182.785156 183.820312 190.230469 C 198.621094 175.902344 209.273438 156.957031 213.609375 136.21875 Z M 213.609375 136.21875 " fill-opacity="1" fill-rule="nonzero"/><path fill="#b7d76a" d="M 201.542969 90.6875 C 201.730469 91.535156 201.917969 92.382812 202.109375 93.230469 C 202.203125 94.078125 202.390625 94.929688 202.484375 95.777344 C 202.765625 97.472656 202.957031 99.265625 203.144531 100.960938 C 202.863281 99.265625 202.578125 97.472656 202.203125 95.777344 L 201.636719 93.230469 C 201.449219 92.382812 201.164062 91.535156 200.976562 90.6875 C 201.351562 91.441406 201.449219 90.875 201.542969 90.6875 Z M 201.542969 90.6875 " fill-opacity="1" fill-rule="nonzero"/><path fill="#b7d76a" d="M 194.378906 53.640625 C 194.941406 54.394531 195.507812 55.148438 195.980469 55.902344 C 194.472656 54.015625 192.871094 52.320312 191.265625 50.527344 C 191.925781 51.09375 193.339844 52.601562 194.378906 53.640625 Z M 194.378906 53.640625 " fill-opacity="1" fill-rule="nonzero"/><path fill="#b7d76a" d="M 203.238281 127.542969 C 203.425781 126.320312 203.519531 125 203.710938 123.773438 C 203.804688 122.546875 203.992188 121.230469 203.992188 120.003906 C 204.085938 121.511719 204.085938 123.019531 204.179688 124.527344 C 203.898438 125.28125 203.617188 126.320312 203.238281 127.542969 Z M 203.238281 127.542969 " fill-opacity="1" fill-rule="nonzero"/><path fill="#b7d76a" d="M 190.511719 164.6875 C 189.570312 166.195312 188.628906 167.609375 187.683594 169.023438 C 186.648438 170.339844 185.707031 171.753906 184.667969 172.980469 C 187.023438 169.683594 189.382812 166.289062 191.265625 162.707031 C 191.078125 163.648438 190.796875 164.308594 190.511719 164.6875 Z M 190.511719 164.6875 " fill-opacity="1" fill-rule="nonzero"/></g></g></g></g><path stroke-linecap="butt" transform="matrix(0, -0.749181, 0.749181, 0, 89.694365, 200.412494)" fill="none" stroke-linejoin="miter" d="M -0.00209374 3.499876 L 210.415128 3.499876 " stroke="#000000" stroke-width="7" stroke-opacity="1" stroke-miterlimit="4"/><g clip-path="url(#2cdc621d4c)"><g clip-path="url(#6404452a29)"><g clip-path="url(#48087753b6)"><g clip-path="url(#58de452067)"><path fill="#000000" d="M 64.46875 128.566406 C 64.257812 128.960938 64.324219 129.449219 64.628906 129.777344 C 81.269531 147.660156 96.148438 156.558594 110.542969 157.882812 C 132.097656 159.863281 152.746094 144.847656 176.886719 116.929688 C 177.070312 116.71875 177.160156 116.441406 177.136719 116.160156 C 177.117188 115.882812 176.984375 115.621094 176.769531 115.4375 C 153.421875 95.601562 132.253906 85.921875 113.519531 87.621094 C 94.71875 89.328125 78.253906 102.453125 64.46875 128.566406 Z M 66.683594 128.890625 C 79.96875 104.03125 95.660156 91.359375 113.71875 89.71875 C 131.789062 88.082031 152.117188 97.445312 174.589844 116.355469 C 151.339844 143.082031 131.554688 157.695312 110.730469 155.78125 C 96.886719 154.507812 82.652344 145.914062 66.683594 128.890625 Z M 66.683594 128.890625 " fill-opacity="1" fill-rule="evenodd"/></g></g></g></g><g clip-path="url(#8ef0d883f6)"><g clip-path="url(#384038377d)"><g clip-path="url(#c2769643c1)"><g clip-path="url(#2ef4b9dc0f)"><path fill="#000000" d="M 66.273438 129.945312 C 72.335938 126.757812 89.972656 122.644531 105.429688 120.371094 C 115.65625 118.867188 124.921875 118.148438 129.1875 119.113281 C 129.753906 119.242188 130.320312 118.886719 130.445312 118.320312 C 130.574219 117.753906 130.214844 117.1875 129.648438 117.058594 C 125.246094 116.058594 115.675781 116.730469 105.113281 118.285156 C 89.390625 120.597656 71.457031 124.835938 65.289062 128.078125 C 64.773438 128.347656 64.574219 128.984375 64.847656 129.5 C 65.121094 130.015625 65.757812 130.214844 66.273438 129.945312 Z M 66.273438 129.945312 " fill-opacity="1" fill-rule="evenodd"/></g></g></g></g><path stroke-linecap="butt" transform="matrix(0, 0.749181, -0.749181, 0, 130.60767, 42.780077)" fill="none" stroke-linejoin="miter" d="M 0.00156551 3.501549 L 210.413573 3.501549 " stroke="#b7d76a" stroke-width="7" stroke-opacity="1" stroke-miterlimit="4"/><path stroke-linecap="butt" transform="matrix(-0.749181, 0.00000000130757, -0.00000000130757, -0.749181, 140.249236, 48.021102)" fill="none" stroke-linejoin="miter" d="M -0.00101939 3.500708 L 65.435003 3.500708 " stroke="#000000" stroke-width="7" stroke-opacity="1" stroke-miterlimit="4"/><path stroke-linecap="butt" transform="matrix(-0.749181, -0.00000000130757, 0.00000000130757, -0.749181, 140.249236, 200.415714)" fill="none" stroke-linejoin="miter" d="M -0.00101938 3.500815 L 65.435003 3.500815 " stroke="#000000" stroke-width="7" stroke-opacity="1" stroke-miterlimit="4"/></svg>