<svg xmlns="http://www.w3.org/2000/svg" xmlns:xlink="http://www.w3.org/1999/xlink" width="308" zoomAndPan="magnify" viewBox="0 0 230.87999 231" height="308" preserveAspectRatio="xMidYMid meet" version="1.0"><defs><clipPath id="db7a9e23bc"><path d="M 0 0.0585938 L 230.128906 0.0585938 L 230.128906 230.191406 L 0 230.191406 Z M 0 0.0585938 " clip-rule="nonzero"/></clipPath><clipPath id="e9aca0012b"><path d="M 61 81 L 175 81 L 175 152 L 61 152 Z M 61 81 " clip-rule="nonzero"/></clipPath><clipPath id="b76a8d2800"><path d="M 109.839844 54.917969 L 175.589844 109.503906 L 120.527344 175.832031 L 54.777344 121.246094 Z M 109.839844 54.917969 " clip-rule="nonzero"/></clipPath><clipPath id="ae501d7c0d"><path d="M 109.839844 54.917969 L 175.589844 109.503906 L 120.527344 175.832031 L 54.777344 121.246094 Z M 109.839844 54.917969 " clip-rule="nonzero"/></clipPath><clipPath id="41cc784b00"><path d="M 109.839844 54.917969 L 175.589844 109.503906 L 120.527344 175.832031 L 54.777344 121.246094 Z M 109.839844 54.917969 " clip-rule="nonzero"/></clipPath><clipPath id="81b5f35bfc"><path d="M 62 110 L 129 110 L 129 124 L 62 124 Z M 62 110 " clip-rule="nonzero"/></clipPath><clipPath id="bc0f22b90e"><path d="M 109.839844 54.917969 L 175.589844 109.503906 L 120.527344 175.832031 L 54.777344 121.246094 Z M 109.839844 54.917969 " clip-rule="nonzero"/></clipPath><clipPath id="4e2d9600ea"><path d="M 109.839844 54.917969 L 175.589844 109.503906 L 120.527344 175.832031 L 54.777344 121.246094 Z M 109.839844 54.917969 " clip-rule="nonzero"/></clipPath><clipPath id="1a0b864c4b"><path d="M 109.839844 54.917969 L 175.589844 109.503906 L 120.527344 175.832031 L 54.777344 121.246094 Z M 109.839844 54.917969 " clip-rule="nonzero"/></clipPath></defs><g clip-path="url(#db7a9e23bc)"><path fill="#b7d76a" d="M 196.46875 196.574219 C 191.160156 201.878906 185.34375 206.671875 179.113281 210.847656 C 172.882812 215.027344 166.238281 218.59375 159.308594 221.46875 C 155.84375 222.910156 152.304688 224.175781 148.714844 225.273438 C 145.125 226.367188 141.484375 227.28125 137.800781 228.019531 C 130.441406 229.492188 122.9375 230.25 115.425781 230.269531 C 107.914062 230.285156 100.402344 229.578125 93.023438 228.140625 C 85.648438 226.699219 78.410156 224.546875 71.449219 221.695312 C 64.492188 218.84375 57.808594 215.308594 51.539062 211.144531 C 45.269531 206.984375 39.410156 202.199219 34.058594 196.898438 C 28.714844 191.59375 23.875 185.769531 19.65625 179.523438 C 15.4375 173.273438 11.832031 166.609375 8.921875 159.648438 C 6.011719 152.6875 3.789062 145.4375 2.296875 138.035156 C 0.808594 130.636719 0.0390625 123.085938 0.0195312 115.53125 C 0.00390625 107.976562 0.71875 100.417969 2.175781 93.003906 C 3.632812 85.589844 5.8125 78.3125 8.695312 71.320312 C 11.578125 64.332031 15.152344 57.628906 19.355469 51.339844 C 21.457031 48.199219 23.714844 45.160156 26.113281 42.238281 C 28.515625 39.316406 31.058594 36.511719 33.730469 33.835938 C 39.078125 28.492188 44.945312 23.664062 51.234375 19.460938 C 57.519531 15.257812 64.226562 11.683594 71.214844 8.800781 C 78.203125 5.914062 85.480469 3.734375 92.894531 2.277344 C 100.3125 0.820312 107.871094 0.105469 115.425781 0.121094 C 122.980469 0.140625 130.527344 0.910156 137.929688 2.398438 C 145.332031 3.890625 152.582031 6.113281 159.542969 9.023438 C 166.503906 11.933594 173.171875 15.539062 179.417969 19.757812 C 185.664062 23.980469 191.488281 28.816406 196.796875 34.160156 C 202.097656 39.511719 206.882812 45.371094 211.042969 51.644531 C 215.203125 57.914062 218.742188 64.597656 221.589844 71.554688 C 224.441406 78.515625 226.597656 85.753906 228.035156 93.128906 C 229.472656 100.507812 230.179688 108.023438 230.164062 115.53125 C 230.144531 123.042969 229.382812 130.546875 227.910156 137.910156 C 227.175781 141.589844 226.257812 145.234375 225.164062 148.824219 C 224.617188 150.617188 224.027344 152.402344 223.394531 154.167969 L 222.910156 155.488281 C 222.828125 155.707031 222.75 155.929688 222.667969 156.148438 L 222.410156 156.804688 L 221.898438 158.113281 C 221.808594 158.332031 221.726562 158.550781 221.636719 158.765625 L 221.363281 159.414062 C 218.488281 166.347656 214.921875 172.988281 210.742188 179.21875 C 206.5625 185.449219 201.769531 191.269531 196.46875 196.574219 Z M 196.46875 196.574219 C 201.769531 191.265625 206.558594 185.445312 210.726562 179.210938 C 214.898438 172.972656 218.445312 166.324219 221.304688 159.390625 C 224.167969 152.457031 226.328125 145.238281 227.769531 137.882812 C 229.214844 130.523438 229.925781 123.027344 229.910156 115.53125 C 229.890625 108.039062 229.128906 100.546875 227.648438 93.207031 C 226.171875 85.863281 223.964844 78.671875 221.078125 71.769531 C 218.191406 64.863281 214.613281 58.25 210.425781 52.054688 C 206.242188 45.859375 201.445312 40.082031 196.140625 34.816406 C 190.832031 29.558594 185.019531 24.8125 178.796875 20.683594 C 172.578125 16.554688 165.949219 13.046875 159.046875 10.222656 C 152.144531 7.394531 144.964844 5.257812 137.648438 3.832031 C 130.328125 2.40625 122.875 1.703125 115.425781 1.71875 C 107.976562 1.738281 100.53125 2.492188 93.226562 3.949219 C 85.925781 5.410156 78.769531 7.59375 71.894531 10.445312 C 68.457031 11.875 65.09375 13.46875 61.8125 15.230469 C 58.535156 16.988281 55.34375 18.910156 52.25 20.980469 C 46.070312 25.125 40.300781 29.878906 35.035156 35.140625 C 29.773438 40.40625 25.019531 46.175781 20.875 52.359375 C 16.726562 58.539062 13.191406 65.125 10.335938 72 C 8.910156 75.4375 7.652344 78.945312 6.566406 82.507812 C 5.480469 86.066406 4.570312 89.683594 3.839844 93.332031 C 2.382812 100.636719 1.625 108.082031 1.605469 115.53125 C 1.589844 122.980469 2.292969 130.4375 3.71875 137.753906 C 5.144531 145.070312 7.28125 152.253906 10.109375 159.15625 C 12.9375 166.058594 16.445312 172.6875 20.574219 178.90625 C 24.703125 185.128906 29.445312 190.941406 34.707031 196.25 C 39.972656 201.554688 45.75 206.351562 51.945312 210.539062 C 58.140625 214.722656 64.753906 218.300781 71.660156 221.1875 C 78.566406 224.074219 85.757812 226.28125 93.097656 227.757812 C 100.441406 229.238281 107.929688 230 115.425781 230.019531 C 122.917969 230.035156 130.417969 229.324219 137.773438 227.878906 C 145.132812 226.433594 152.351562 224.273438 159.28125 221.410156 C 166.214844 218.550781 172.867188 215.003906 179.101562 210.832031 C 185.339844 206.667969 191.160156 201.875 196.46875 196.574219 Z M 196.46875 196.574219 " fill-opacity="1" fill-rule="nonzero"/></g><g clip-path="url(#e9aca0012b)"><g clip-path="url(#b76a8d2800)"><g clip-path="url(#ae501d7c0d)"><g clip-path="url(#41cc784b00)"><path fill="#000000" d="M 62.101562 122.175781 C 61.890625 122.570312 61.957031 123.054688 62.261719 123.386719 C 78.914062 141.28125 93.796875 150.179688 108.203125 151.503906 C 129.769531 153.488281 150.429688 138.464844 174.582031 110.53125 C 174.765625 110.320312 174.855469 110.042969 174.835938 109.761719 C 174.8125 109.480469 174.679688 109.222656 174.464844 109.039062 C 151.105469 89.191406 129.921875 79.503906 111.183594 81.207031 C 92.367188 82.910156 75.894531 96.046875 62.101562 122.175781 Z M 64.320312 122.5 C 77.609375 97.625 93.308594 84.945312 111.378906 83.304688 C 129.460938 81.664062 149.800781 91.039062 172.285156 109.957031 C 149.023438 136.699219 129.226562 151.320312 108.390625 149.402344 C 94.539062 148.128906 80.296875 139.53125 64.320312 122.5 Z M 64.320312 122.5 " fill-opacity="1" fill-rule="evenodd"/></g></g></g></g><g clip-path="url(#81b5f35bfc)"><g clip-path="url(#bc0f22b90e)"><g clip-path="url(#4e2d9600ea)"><g clip-path="url(#1a0b864c4b)"><path fill="#000000" d="M 63.90625 123.554688 C 69.972656 120.363281 87.621094 116.25 103.085938 113.972656 C 113.316406 112.46875 122.589844 111.75 126.855469 112.714844 C 127.425781 112.847656 127.988281 112.488281 128.117188 111.921875 C 128.246094 111.355469 127.886719 110.789062 127.316406 110.660156 C 122.914062 109.660156 113.335938 110.332031 102.769531 111.886719 C 87.035156 114.203125 69.09375 118.441406 62.921875 121.683594 C 62.40625 121.957031 62.207031 122.59375 62.480469 123.109375 C 62.753906 123.625 63.390625 123.824219 63.90625 123.554688 Z M 63.90625 123.554688 " fill-opacity="1" fill-rule="evenodd"/></g></g></g></g><path stroke-linecap="butt" transform="matrix(0, -0.74961, 0.74961, 0, 90.522569, 188.962402)" fill="none" stroke-linejoin="miter" d="M 0.00195424 1.501939 L 210.41336 1.501939 " stroke="#000000" stroke-width="3" stroke-opacity="1" stroke-miterlimit="4"/><path stroke-linecap="butt" transform="matrix(0, 0.74961, -0.74961, 0, 128.460853, 31.239701)" fill="none" stroke-linejoin="miter" d="M -0.00189463 1.500668 L 210.414722 1.500668 " stroke="#b7d76a" stroke-width="3" stroke-opacity="1" stroke-miterlimit="4"/><path stroke-linecap="butt" transform="matrix(-0.74961, 0.00000000130832, -0.00000000130832, -0.74961, 140.691155, 33.485279)" fill="none" stroke-linejoin="miter" d="M -0.000335261 1.501985 L 65.434704 1.501985 " stroke="#000000" stroke-width="3" stroke-opacity="1" stroke-miterlimit="4"/><path stroke-linecap="butt" transform="matrix(-0.74961, -0.00000000130832, 0.00000000130832, -0.74961, 140.691141, 188.965638)" fill="none" stroke-linejoin="miter" d="M -0.000354455 1.50184 L 65.434685 1.50184 " stroke="#000000" stroke-width="3" stroke-opacity="1" stroke-miterlimit="4"/></svg>